<svg width="35" height="36" viewBox="0 0 35 36" fill="none" xmlns="http://www.w3.org/2000/svg">
    <path fill-rule="evenodd" clip-rule="evenodd" d="M17.5 30.3334C24.5876 30.3334 30.3333 24.5877 30.3333 17.5001C30.3333 10.4124 24.5876 4.66675 17.5 4.66675C10.4123 4.66675 4.66666 10.4124 4.66666 17.5001C4.66666 24.5877 10.4123 30.3334 17.5 30.3334ZM14.3661 9.33342H20.635C23.4149 9.33342 25.6678 11.5871 25.6678 14.367V20.6359C25.6678 23.415 23.4149 25.6679 20.635 25.6679H14.3661C11.5863 25.6679 9.33332 23.415 9.33332 20.6359V14.367C9.33332 11.5863 11.5863 9.33342 14.3661 9.33342ZM20.0332 24.1005C22.2782 24.1005 24.0996 22.2806 24.0996 20.034V14.9681C24.0996 12.7231 22.2782 10.9016 20.0332 10.9016H14.9672C12.7206 10.9016 10.9 12.7231 10.9 14.9681V20.034C10.9 22.2806 12.7206 24.1005 14.9672 24.1005H20.0332ZM17.7195 13.227C15.3427 13.227 13.4163 15.1526 13.4163 17.5294C13.4163 19.9061 15.3427 21.8317 17.7195 21.8317C20.0962 21.8317 22.0218 19.9046 22.0218 17.5294C22.0218 15.1542 20.0955 13.227 17.7195 13.227ZM17.7195 20.1183C16.2885 20.1183 15.1305 18.9587 15.1305 17.5294C15.1305 16.1 16.2885 14.9404 17.7195 14.9404C19.1504 14.9404 20.3077 16.0984 20.3077 17.5294C20.3077 18.9603 19.1488 20.1183 17.7195 20.1183ZM21.7236 14.2543C22.3279 14.2543 22.8185 13.7644 22.8185 13.1602C22.8185 12.5559 22.3271 12.0653 21.7236 12.0653C21.1202 12.0653 20.6303 12.5559 20.6303 13.1602C20.6303 13.7644 21.1194 14.2543 21.7236 14.2543Z" fill="#787C88"/>
</svg>
