<svg width="40" height="40" viewBox="0 0 40 40" fill="none" xmlns="http://www.w3.org/2000/svg">
    <path d="M28.7256 2.48856C28.401 2.49802 28.0928 2.63344 27.8662 2.86616L11.6162 19.1162C11.3819 19.3506 11.2502 19.6685 11.2502 19.9999C11.2502 20.3314 11.3819 20.6493 11.6162 20.8837L27.8662 37.1337C27.9814 37.2537 28.1194 37.3495 28.272 37.4155C28.4247 37.4814 28.589 37.5163 28.7553 37.518C28.9216 37.5197 29.0865 37.4882 29.2405 37.4253C29.3945 37.3624 29.5344 37.2695 29.6519 37.1519C29.7695 37.0343 29.8625 36.8944 29.9254 36.7404C29.9882 36.5865 30.0197 36.4215 30.018 36.2552C30.0163 36.0889 29.9815 35.9246 29.9155 35.772C29.8495 35.6193 29.7538 35.4813 29.6338 35.3662L14.2676 19.9999L29.6338 4.63374C29.8141 4.45811 29.9372 4.23213 29.987 3.98537C30.0368 3.73862 30.0109 3.48259 29.9128 3.25078C29.8146 3.01897 29.6488 2.82219 29.437 2.68619C29.2252 2.55019 28.9772 2.48131 28.7256 2.48856Z" fill="black"/>
</svg>
