<svg width="149" height="20" viewBox="0 0 149 20" fill="none" xmlns="http://www.w3.org/2000/svg">
    <g clip-path="url(#clip0_133_342)">
        <path d="M25.8655 14.7377C26.3548 14.5712 26.8441 14.5948 27.3334 14.734C26.8441 14.7352 26.3548 14.7365 25.8655 14.7377Z" fill="#C7CCDA"/>
        <path d="M54.6556 0.101889C54.6594 0.06834 54.6631 0.0335487 54.6631 0H57.0226C57.0226 0.0335487 57.0264 0.0670974 57.0301 0.100646C56.239 0.447316 55.4467 0.444831 54.6556 0.101889Z" fill="#C7CCDA"/>
        <path d="M64.2217 7.70868C64.028 7.89009 63.7883 7.81181 63.5697 7.81305C58.5017 7.81802 53.4324 7.81802 48.3643 7.81305C48.1458 7.81305 47.9048 7.89257 47.7148 7.70495C47.8999 7.52602 48.1334 7.56951 48.3556 7.56951C53.3467 7.56951 58.339 7.57324 63.33 7.55957C63.6467 7.55957 63.9162 7.7124 64.2217 7.70868Z" fill="#C7CCDA"/>
        <path d="M85.8016 17.7374C85.5284 17.3323 85.8376 16.9422 85.8363 16.5421C85.8264 11.8825 85.8252 7.22297 85.8363 2.56343C85.8363 2.16457 85.5209 1.77441 85.8065 1.37183C85.9307 1.63897 85.9618 1.91855 85.9605 2.21303C85.9568 7.08629 85.9568 11.9595 85.9605 16.8341C85.9605 17.1472 85.9432 17.4528 85.8003 17.7374H85.8016Z" fill="#C7CCDA"/>
        <path d="M82.6298 1.49612C82.7851 1.6738 82.7242 1.89 82.7242 2.09005C82.728 7.06272 82.728 12.0366 82.7242 17.0093C82.7242 17.2106 82.7826 17.4243 82.6398 17.607C82.6137 17.3622 82.5665 17.1174 82.5665 16.8714C82.5615 11.9919 82.5628 7.11242 82.5665 2.23294C82.5665 1.98692 82.6087 1.7409 82.6311 1.49487L82.6298 1.49612Z" fill="#C7CCDA"/>
        <path d="M105.571 14.1601C105.378 14.3428 105.139 14.2657 104.919 14.2657C100.099 14.2707 95.2782 14.2707 90.4585 14.2657C90.2399 14.2657 89.999 14.344 89.8065 14.1601C92.7646 14.1514 95.7228 14.1365 98.6809 14.1353C100.977 14.1353 103.273 14.1514 105.569 14.1601H105.571Z" fill="#C7CCDA"/>
        <path d="M43.4553 17.239C43.3088 17.0575 43.3672 16.8426 43.3672 16.6413C43.3634 11.8712 43.3634 7.10104 43.3672 2.33091C43.3672 2.1321 43.3013 1.91341 43.4727 1.74194C43.4839 1.96809 43.5062 2.19423 43.5062 2.42037C43.5087 7.09234 43.5087 11.7643 43.5062 16.4375C43.5062 16.7047 43.474 16.9718 43.4566 17.239H43.4553Z" fill="#C7CCDA"/>
        <path d="M148.141 12.648C147.992 12.4927 148.041 12.2976 148.041 12.1174C148.039 8.83461 148.039 5.55181 148.041 2.269C148.041 2.09008 147.984 1.89251 148.147 1.74341C148.144 5.37785 148.143 9.01354 148.141 12.648Z" fill="#C7CCDA"/>
        <path d="M39.9967 7.5957C40.2861 7.67647 40.1271 7.91131 40.1271 8.05917C40.1395 10.8077 40.1507 13.5562 40.1234 16.3047C40.1184 16.8452 40.3183 17.3609 40.2351 17.8989C39.9743 17.5895 40.0079 17.2142 40.0066 16.8489C40.0017 13.7649 39.9992 10.6797 39.9967 7.5957Z" fill="#C7CCDA"/>
        <path d="M110.172 10.0286C113.078 10.3293 115.994 10.0919 118.903 10.1901C119.307 10.2038 119.693 9.91301 120.096 10.1528C119.814 10.3094 119.501 10.3243 119.194 10.3243C116.556 10.3317 113.919 10.3342 111.281 10.3293C110.891 10.3293 110.501 10.2771 110.172 10.0286Z" fill="#C7CCDA"/>
        <path d="M49.328 12.5124C49.5006 12.3446 49.7167 12.4105 49.9154 12.4105C52.6736 12.4068 55.4305 12.4043 58.1887 12.4155C58.4309 12.4155 58.7612 12.2701 58.8841 12.6565C58.216 12.4975 57.5367 12.5472 56.8599 12.5447C54.3489 12.5335 51.839 12.5236 49.328 12.5136V12.5124Z" fill="#C7CCDA"/>
        <path d="M53.4635 15.6561C53.3703 15.6362 53.2772 15.6164 53.1853 15.5965C53.1878 15.5667 53.1915 15.5381 53.194 15.5083H56.9916C58.5588 15.5083 60.1273 15.5058 61.6945 15.512C61.9144 15.512 62.1503 15.4424 62.3527 15.599C62.2112 15.6251 62.0696 15.6735 61.9293 15.6735C59.1077 15.671 56.2862 15.6623 53.4635 15.6561Z" fill="#C7CCDA"/>
        <path d="M58.6334 13.7512C58.5291 13.9289 58.354 13.8954 58.1925 13.8954C55.4964 13.8966 52.8004 13.8954 50.103 13.8954C49.9602 13.8954 49.8112 13.9128 49.7019 13.7873C52.3483 13.7786 54.9935 13.7711 57.6399 13.7624C57.9702 13.7624 58.3018 13.755 58.6321 13.75L58.6334 13.7512Z" fill="#C7CCDA"/>
        <path d="M127.167 9.67457C127.018 9.54783 127.055 9.37263 127.055 9.21234C127.054 6.79311 127.054 4.37511 127.055 1.95588C127.055 1.79435 127.017 1.62039 127.166 1.49365C127.233 4.22104 127.23 6.94842 127.166 9.67457H127.167Z" fill="#C7CCDA"/>
        <path d="M144.672 5.58645C144.843 5.69579 144.809 5.87099 144.81 6.03004C144.811 8.1026 144.81 10.1764 144.81 12.249C144.81 12.3906 144.828 12.5397 144.703 12.6491C144.692 10.2944 144.682 7.93983 144.671 5.58521L144.672 5.58645Z" fill="#C7CCDA"/>
        <path d="M109.443 1.86621C109.565 1.97804 109.546 2.12715 109.546 2.27004C109.546 4.31154 109.546 6.35304 109.546 8.39454C109.546 8.53743 109.565 8.68654 109.445 8.80085C109.445 6.48972 109.443 4.17734 109.443 1.86621Z" fill="#C7CCDA"/>
        <path d="M78.4013 11.0474C78.523 11.1604 78.5043 11.3083 78.5043 11.4524C78.5043 13.2479 78.5043 15.0421 78.5043 16.8376C78.5043 16.9805 78.523 17.1296 78.4 17.2414C78.4 15.1763 78.4 13.1125 78.4 11.0474H78.4013Z" fill="#C7CCDA"/>
        <path d="M63.3374 14.6371C63.1623 13.607 63.1685 12.5757 63.335 11.5457C63.5113 12.5757 63.5076 13.607 63.3374 14.6371Z" fill="#C7CCDA"/>
        <path d="M47.8403 9.53144C48.0142 9.36742 48.2315 9.43328 48.4315 9.43204C49.7304 9.42707 51.0307 9.42707 52.3297 9.43204C52.5284 9.43204 52.7457 9.36618 52.9195 9.53268C51.2269 9.53268 49.533 9.53268 47.8403 9.53144Z" fill="#C7CCDA"/>
        <path d="M58.7675 9.53273C58.9413 9.36748 59.1586 9.43333 59.3573 9.43209C60.6563 9.42712 61.9553 9.42712 63.2555 9.43209C63.4542 9.43209 63.6716 9.36748 63.8467 9.53025C62.154 9.53025 60.4614 9.53025 58.7675 9.53149V9.53273Z" fill="#C7CCDA"/>
        <path d="M48.3407 15.0161C48.527 15.8834 48.527 16.7507 48.3407 17.6168C48.2674 16.7495 48.2674 15.8822 48.3407 15.0161Z" fill="#C7CCDA"/>
        <path d="M133.781 14.5242C133.95 15.2647 133.955 16.004 133.778 16.7434C133.778 16.004 133.781 15.2635 133.781 14.5242Z" fill="#C7CCDA"/>
        <path d="M137.499 0.367852C136.876 0.316907 136.24 0.498319 135.626 0.265963C136.252 0.269691 136.889 0.074611 137.499 0.367852Z" fill="#C7CCDA"/>
        <path d="M89.8079 10.5342C90.3828 10.3516 90.9591 10.3677 91.5365 10.5268C90.9603 10.615 90.3841 10.6722 89.8079 10.5342Z" fill="#C7CCDA"/>
        <path d="M40.0303 1.74072C40.2352 2.30981 40.1321 2.88883 40.0911 3.46662C40.0911 3.47034 40.0551 3.47656 40.039 3.47159C40.0203 3.46662 40.0054 3.44922 39.988 3.43804C40.0017 2.87268 40.0166 2.30732 40.0303 1.74072Z" fill="#C7CCDA"/>
        <path d="M42.2954 18.5163C42.5326 18.1957 42.8816 18.0367 43.2256 17.8677C43.0244 18.2392 42.74 18.4914 42.2954 18.5163Z" fill="#C7CCDA"/>
        <path d="M63.3474 18.2369C63.1226 17.9697 63.2791 17.6516 63.2294 17.3596C63.5796 17.6106 63.5349 17.9138 63.3474 18.2369Z" fill="#C7CCDA"/>
        <path d="M36.7915 14.744C37.2411 14.5788 37.6919 14.5775 38.1414 14.744C37.6919 14.744 37.2411 14.744 36.7915 14.744Z" fill="#C7CCDA"/>
        <path d="M78.4001 1.86621C78.5528 2.32222 78.6062 2.777 78.369 3.22431C78.379 2.77203 78.3901 2.3185 78.4001 1.86621Z" fill="#C7CCDA"/>
        <path d="M97.2763 3.11258C97.2292 3.07903 97.0926 3.00821 97.1708 3.00075C97.5247 2.97093 97.8849 3.00572 98.2413 3.01939C98.245 3.01939 98.2537 3.05542 98.2487 3.07158C98.2438 3.09021 98.2276 3.10512 98.2164 3.12252C97.9022 3.12004 97.5893 3.11631 97.2751 3.11382L97.2763 3.11258Z" fill="#C7CCDA"/>
        <path d="M138.337 12.8988C138.17 12.4465 138.159 11.9942 138.345 11.5444C138.342 11.9955 138.34 12.4478 138.337 12.8988Z" fill="#C7CCDA"/>
        <path d="M76.9198 10.564C77.3284 10.3317 77.7307 10.3093 78.1232 10.6013C77.7245 10.5056 77.3209 10.5665 76.9198 10.564Z" fill="#C7CCDA"/>
        <path d="M136.001 8.03919C136.4 7.84038 136.826 7.98576 137.237 7.94103C137.251 7.95843 137.266 7.97706 137.279 7.99446C137.264 8.01186 137.251 8.02925 137.236 8.04665C136.825 8.04416 136.412 8.04168 136.001 8.03919Z" fill="#C7CCDA"/>
        <path d="M117.751 1.61523C117.91 2.03273 117.984 2.4465 117.704 2.8466C117.72 2.43656 117.735 2.02652 117.751 1.61523Z" fill="#C7CCDA"/>
        <path d="M106.183 10.0471C106.004 9.80481 106.015 9.55879 106.173 9.31152C106.32 9.55506 106.337 9.79984 106.183 10.0471Z" fill="#C7CCDA"/>
        <path d="M137.237 7.94102C137.606 7.73724 137.978 7.75588 138.351 7.92735C138.242 7.93605 138.132 7.94474 138.024 7.95344C137.761 8.01805 137.498 8.04415 137.237 7.94102Z" fill="#C7CCDA"/>
        <path d="M96.6319 1.10718C96.268 1.33581 95.898 1.28735 95.5242 1.13824C95.893 1.1283 96.2631 1.11712 96.6319 1.10718Z" fill="#C7CCDA"/>
        <path d="M99.857 1.1331C99.5465 1.33812 99.2075 1.22256 98.8784 1.21635C98.8685 1.21635 98.8523 1.18777 98.8511 1.17286C98.8511 1.15422 98.8623 1.13558 98.8697 1.11694C99.1988 1.12191 99.5279 1.12813 99.857 1.1331Z" fill="#C7CCDA"/>
        <path d="M63.5735 4.211C63.4307 3.84321 63.422 3.47542 63.5797 3.11011C63.6741 3.4779 63.6678 3.84445 63.5735 4.211Z" fill="#C7CCDA"/>
        <path d="M120.604 19.1116C120.883 18.8842 121.171 18.9451 121.46 19.0892C121.175 19.0967 120.889 19.1041 120.604 19.1116Z" fill="#C7CCDA"/>
        <path d="M118.245 19.0842C118.581 18.945 118.911 18.8841 119.229 19.1301C118.901 19.1152 118.573 19.0991 118.245 19.0842Z" fill="#C7CCDA"/>
        <path d="M32.6797 0.766689C32.3518 0.925735 32.0252 0.931947 31.6986 0.761719C32.0252 0.762961 32.3531 0.764204 32.6797 0.766689Z" fill="#C7CCDA"/>
        <path d="M77.7605 3.59845C77.4674 3.80347 77.1781 3.79601 76.8937 3.58105C77.183 3.58727 77.4724 3.59224 77.7605 3.59845Z" fill="#C7CCDA"/>
        <path d="M55.4144 7.17333C55.7001 7.0205 55.9869 7.01677 56.2713 7.17581C55.9857 7.17581 55.7001 7.17457 55.4144 7.17333Z" fill="#C7CCDA"/>
        <path d="M130.415 3.7251C130.599 4.01088 130.593 4.29791 130.42 4.58618C130.361 4.29915 130.357 4.01213 130.415 3.7251Z" fill="#C7CCDA"/>
        <path d="M120.979 9.57879C120.969 9.32158 120.992 9.07929 121.259 8.94385C121.205 9.17248 121.254 9.44832 120.979 9.57879Z" fill="#C7CCDA"/>
        <path d="M82.8397 18.0145C83.1415 17.9462 83.2495 18.0816 83.2123 18.3686C83.0372 18.304 82.9142 18.1847 82.8397 18.0145Z" fill="#C7CCDA"/>
        <path d="M40.2202 17.8877C40.4338 17.9821 40.6884 18.0418 40.6201 18.3698C40.4152 18.2679 40.2649 18.1213 40.2202 17.8877Z" fill="#C7CCDA"/>
        <path d="M122.239 8.45439C122.393 8.16487 122.63 8.35374 122.835 8.35374C122.838 8.35374 122.845 8.39102 122.84 8.40717C122.835 8.42457 122.818 8.43948 122.807 8.45563H122.24L122.239 8.45439Z" fill="#C7CCDA"/>
        <path d="M130.404 9.41968C130.369 9.66943 130.5 9.94155 130.301 10.1689C130.259 9.90924 130.132 9.63712 130.404 9.41968Z" fill="#C7CCDA"/>
        <path d="M66.9662 6.20654C67.1041 6.41281 67.1935 6.61783 66.9501 6.81415C66.955 6.61161 66.96 6.40908 66.9662 6.20654Z" fill="#C7CCDA"/>
        <path d="M66.9227 8.69287C67.1723 8.92274 67.1289 9.17001 66.9687 9.42597C66.9538 9.18119 66.9376 8.93765 66.9227 8.69287Z" fill="#C7CCDA"/>
        <path d="M68.9147 1.47485C69.0339 1.84762 68.7458 1.8091 68.5359 1.8501C68.6626 1.72461 68.788 1.60035 68.9147 1.47485Z" fill="#C7CCDA"/>
        <path d="M42.0247 0.536855C41.056 0.258525 40.2277 0.719509 40.0302 1.74088C40.0749 2.30748 40.1619 2.87657 39.988 3.4382C39.8079 3.6544 39.8303 3.95882 39.5869 4.16881C38.6269 4.99635 37.1727 4.71802 36.6586 3.57239C36.517 3.25554 36.4201 2.92006 36.281 2.60196C35.9184 1.77319 35.3534 1.11464 34.4555 0.90092C33.8855 0.765483 33.2807 0.694658 32.6796 0.767968C32.3518 0.83258 32.0252 0.838793 31.6986 0.762998C31.1509 0.745602 30.6231 0.867372 30.0879 0.943167C29.4483 1.03387 28.9416 1.20783 28.5306 1.68497C28.1617 2.1124 27.9121 2.6119 27.7445 3.13874C26.6479 6.58183 25.827 10.0945 25.1341 13.6382C25.0248 14.1949 25.2906 14.5913 25.8655 14.7379C26.3548 14.6783 26.8441 14.6832 27.3334 14.7342C28.0947 14.6546 28.6784 14.3552 28.8336 13.5264C29.2769 11.1693 29.7712 8.8209 30.3387 6.49113C30.5809 5.49461 30.7622 4.47324 31.2142 3.53636C31.4042 3.14123 31.6986 2.85917 32.1717 2.86911C32.62 2.87781 32.8659 3.17105 33.0584 3.53884C33.3565 4.10793 33.5129 4.72423 33.6769 5.33805C34.15 7.10619 34.3735 8.92403 34.7771 10.7058C34.8318 10.671 34.8591 10.6251 34.8293 10.5592C34.874 10.589 34.8591 10.6375 34.8579 10.6773C34.8541 10.799 34.8852 10.9258 34.8144 11.0388C34.7858 11.1867 34.8218 11.3197 34.9075 11.4402C34.9572 11.4042 34.9734 11.3594 34.9758 11.3184C34.9883 11.4625 35.0106 11.6241 34.9411 11.7831C35.0168 12.2429 35.1025 12.7001 35.1658 13.1611C35.3186 14.2831 35.644 14.6049 36.7902 14.7454C37.2398 14.677 37.6906 14.6758 38.1401 14.7454C38.8269 14.472 39.0069 14.1688 38.8691 13.4792C38.7399 12.8343 38.5921 12.1932 38.4593 11.5495C38.191 10.261 37.9166 8.97249 37.6694 7.68024C37.6148 7.39694 37.4919 7.04406 37.8806 6.86141C38.5648 6.53959 39.6291 6.91359 39.9955 7.59699C40.1643 7.77219 40.07 7.98839 40.07 8.18099C40.0774 10.9096 40.0799 13.6382 40.07 16.3656C40.0687 16.885 40.0998 17.3969 40.2326 17.8989L40.2177 17.8877C40.3854 18.0195 40.5332 18.1686 40.6176 18.3699C40.8002 18.5314 41.0088 18.6171 41.2559 18.5948C41.5018 18.5239 41.7465 18.5177 41.9911 18.5997C42.1066 18.6283 42.2147 18.6295 42.2917 18.5177C42.6096 18.3127 42.9523 18.145 43.2218 17.8704C43.3969 17.6964 43.4118 17.464 43.4516 17.2404C43.4118 17.1199 43.4217 16.9944 43.4217 16.8713C43.4217 11.9708 43.4217 7.07015 43.4217 2.1708C43.4217 2.02791 43.3994 1.88005 43.4689 1.74461C43.4925 1.49983 43.3671 1.32214 43.2255 1.13825C42.9163 0.736904 42.4755 0.669807 42.0222 0.53934L42.0247 0.536855Z" fill="#C7CCDA"/>
        <path d="M64.2218 7.70885C63.956 7.8269 63.6952 7.68773 63.4294 7.68897C58.1913 7.7014 52.9531 7.67903 47.7149 7.70513C47.1697 7.70637 46.8009 7.97476 46.7202 8.50408C46.637 9.0508 47.0195 9.30801 47.4889 9.44966C47.6044 9.48445 47.7236 9.50557 47.8403 9.53291C49.533 9.46457 51.2269 9.46208 52.9196 9.53415C53.1617 9.57267 53.4026 9.61492 53.646 9.64722C53.9267 9.68574 54.1788 9.87709 54.108 10.1107C54.0211 10.4002 53.7454 10.6997 53.3915 10.6487C52.1459 10.4673 50.899 10.5965 49.6535 10.5816C49.3057 10.5779 48.9357 10.7307 48.6115 10.8873C48.2986 11.0376 48.2166 11.398 48.311 11.6937C48.4613 12.1584 48.8189 12.4516 49.3281 12.515C49.4051 12.4802 49.4858 12.4703 49.569 12.4703C52.4414 12.4703 55.3126 12.4703 58.1851 12.4703C58.4334 12.4703 58.6806 12.4852 58.8842 12.6579C59.4592 13.1562 59.4095 13.3761 58.6321 13.7526C58.4545 13.9141 58.2372 13.8334 58.041 13.8334C55.6094 13.8396 53.1766 13.8408 50.7451 13.8334C50.3973 13.8334 50.0459 13.8905 49.7019 13.7886C48.8289 13.8731 48.4439 14.2198 48.3396 15.0163C48.4302 15.8836 48.4302 16.7509 48.3396 17.6169C48.3917 18.4159 49.2325 18.8408 49.9937 18.8408C54.0484 18.8433 58.1019 18.8458 62.1565 18.8358C62.6347 18.8358 63.0954 18.724 63.3475 18.2369C63.3102 17.9449 63.4332 17.6306 63.2295 17.3597C62.9948 17.0677 62.7265 16.8652 62.3167 16.8664C59.3499 16.8813 56.3844 16.885 53.4175 16.8913C53.2102 16.9559 53.004 16.9832 52.8016 16.8739C52.5507 16.7111 52.2812 16.516 52.3446 16.1954C52.4129 15.8537 52.7544 15.7941 53.0586 15.7419C53.194 15.7183 53.3269 15.6835 53.4623 15.6549C53.4697 15.6077 53.4871 15.563 53.5169 15.5642C56.4613 15.5965 59.407 15.5257 62.3515 15.599C62.8358 15.4375 63.2109 15.1629 63.3363 14.636C63.3475 13.606 63.3711 12.5747 63.3338 11.5446C63.2258 11.0687 62.8756 10.7767 62.4496 10.7034C61.0985 10.4735 59.7312 10.5021 58.3726 10.6363C57.969 10.6761 57.7939 10.4089 57.6858 10.1852C57.543 9.88828 57.8137 9.70314 58.0994 9.63604C58.3167 9.5851 58.5427 9.56522 58.765 9.53167C60.4577 9.4596 62.1503 9.46208 63.8442 9.53042C64.4155 9.43599 64.9805 9.26328 65.0377 8.59479C65.0799 8.09404 64.6688 7.84429 64.2193 7.70885H64.2218Z" fill="#C7CCDA"/>
        <path d="M148.579 17.0228C148.19 16.4773 147.594 16.5382 147.08 16.5295C144.209 16.486 141.338 16.5059 138.465 16.4872C137.623 16.4823 137.237 15.9902 137.39 15.1676C137.446 14.8645 137.6 14.5973 137.756 14.3289C138.017 13.8829 138.421 13.4852 138.336 12.8975C138.267 12.4452 138.252 11.9942 138.344 11.5431C138.576 10.9815 138.999 10.7939 139.599 10.7827C140.639 10.7628 141.687 10.9306 142.719 10.6783C142.694 10.6249 142.621 10.6423 142.593 10.5914C142.633 10.5901 142.669 10.6112 142.712 10.6075C142.788 10.6001 142.865 10.6075 142.938 10.6348C143.331 10.4336 143.723 10.1987 143.654 9.68803C143.583 9.16243 143.171 8.9599 142.689 8.88162C142.547 8.85801 142.406 8.81203 142.264 8.81203C138.73 8.8083 135.194 8.80085 131.66 8.81949C131.179 8.82197 130.659 8.87664 130.406 9.41715C130.268 9.65199 130.423 9.92784 130.302 10.1664C130.601 10.7256 131.144 10.769 131.676 10.7889C132.355 10.8138 133.036 10.8088 133.716 10.7889C134.296 10.7728 134.783 10.8821 135 11.5034C135.182 12.0215 135.028 12.7186 134.521 13.0205C133.914 13.3834 133.819 13.9201 133.781 14.5215C133.849 15.2608 133.857 16.0014 133.778 16.7407C133.927 17.8578 134.632 18.4753 135.826 18.4778C139.628 18.4865 143.429 18.4828 147.23 18.479C147.626 18.479 148.01 18.397 148.355 18.1932C148.877 17.8851 148.924 17.5036 148.579 17.019V17.0228Z" fill="#C7CCDA"/>
        <path d="M89.8078 10.5344C90.384 10.4611 90.9603 10.4524 91.5365 10.5269C91.9115 10.4834 92.2058 10.3256 92.4927 10.0548C93.1956 9.38876 93.3831 8.44194 93.8625 7.65416C94.5157 6.58185 95.0485 5.43249 95.6992 4.35148C96.073 3.72897 96.5611 3.28538 97.2776 3.11515C97.2751 3.09527 97.2714 3.05675 97.2702 3.05799C97.1882 3.06296 97.2391 3.03438 97.3198 3.04308C97.6191 3.07911 97.9333 2.94616 98.2177 3.12509C98.9715 3.36738 99.4558 3.9141 99.847 4.56396C100.803 6.15193 101.614 7.8157 102.459 9.46331C102.968 10.4573 104.848 11.0065 105.825 10.4474C105.986 10.3555 106.126 10.2387 106.183 10.051C106.172 9.80625 106.19 9.56023 106.173 9.31545C105.012 6.9074 103.66 4.60993 102.204 2.36838C101.64 1.49984 100.859 1.12832 99.857 1.13577C99.5266 1.20411 99.1963 1.23269 98.8697 1.11962C98.1246 0.968031 97.3782 0.979214 96.6319 1.11092C96.2655 1.25009 95.8942 1.1892 95.5241 1.14199C94.969 1.0898 94.5257 1.44765 94.0128 1.55078C93.9246 1.69616 93.829 1.82911 93.6327 1.82414C92.9696 2.40938 92.6293 3.21579 92.186 3.95014C91.1689 5.63751 90.1841 7.34601 89.3309 9.12409C88.9745 9.86838 89.1235 10.2685 89.8066 10.5381L89.8078 10.5344Z" fill="#C7CCDA"/>
        <path d="M85.8078 1.37173C85.5172 0.56656 84.828 0.462186 84.1201 0.465914C83.411 0.469642 82.8385 0.736789 82.6311 1.49598C82.6994 1.7184 82.6659 1.94827 82.6659 2.17317C82.6684 6.8439 82.6684 11.5134 82.6659 16.1841C82.6659 16.6588 82.6994 17.1334 82.641 17.6081C82.692 17.751 82.682 17.9249 82.8422 18.0144C83.036 18.0591 83.1465 18.1921 83.2148 18.3685C83.4333 18.5574 83.6879 18.6307 83.9736 18.6021C84.1772 18.5151 84.3821 18.5201 84.587 18.5984C85.1918 18.5922 85.5594 18.2505 85.8041 17.7373C85.7556 17.3235 85.9034 16.9271 85.8984 16.5134C85.8413 11.4662 85.9965 6.4177 85.8103 1.37173H85.8078Z" fill="#C7CCDA"/>
        <path d="M105.571 14.1601C105.414 14.2384 105.247 14.2073 105.084 14.2073C100.154 14.2085 95.2249 14.2085 90.2947 14.2073C90.132 14.2073 89.9643 14.2384 89.8078 14.1601C89.5458 14.0284 89.4353 14.3639 89.2167 14.3539C88.8057 14.3353 88.6529 14.6422 88.5647 14.9404C88.4617 15.2883 88.6268 15.5828 88.9323 15.7841C89.3061 16.0289 89.7222 16.1221 90.163 16.1221C95.241 16.1221 100.319 16.1221 105.397 16.1233C105.824 16.1233 106.217 16.014 106.548 15.7543C106.907 15.4735 106.993 15.0709 106.716 14.723C106.443 14.3813 106.084 14.0806 105.572 14.1601H105.571Z" fill="#C7CCDA"/>
        <path d="M72.2913 0.392578C72.0467 0.554109 71.802 0.554109 71.5574 0.392578C71.802 0.392578 72.0467 0.392578 72.2913 0.392578Z" fill="#C7CCDA"/>
        <path d="M41.2584 18.5947C41.5043 18.4307 41.7502 18.4245 41.9936 18.5997C41.749 18.5984 41.5031 18.5972 41.2584 18.5947Z" fill="#C7CCDA"/>
        <path d="M123.701 8.93774C123.935 9.13282 123.845 9.34033 123.723 9.54783C123.716 9.34406 123.708 9.14028 123.701 8.93774Z" fill="#C7CCDA"/>
        <path d="M113.463 3.4604C113.17 3.47779 113.022 3.34733 113.039 3.04663C113.181 3.18455 113.322 3.32248 113.463 3.4604Z" fill="#C7CCDA"/>
        <path d="M53.5529 7.05018C53.7627 6.89735 53.9664 6.8899 54.1663 7.06882C53.9614 7.06261 53.7578 7.0564 53.5529 7.05018Z" fill="#C7CCDA"/>
        <path d="M127.293 15.2583C127.122 15.0546 127.122 14.8496 127.293 14.6445C127.293 14.8496 127.293 15.0533 127.293 15.2583Z" fill="#C7CCDA"/>
        <path d="M34.7783 10.7046C34.8007 10.6537 34.8243 10.6015 34.8466 10.5505C34.8702 10.5878 34.9137 10.6226 34.9149 10.6611C34.9224 10.7953 34.9423 10.9382 34.8144 11.0376C34.8019 10.927 34.7895 10.8152 34.7771 10.7046H34.7783Z" fill="#C7CCDA"/>
        <path d="M94.0127 1.54688C93.9283 1.69722 93.9593 2.00662 93.6327 1.82023C93.7184 1.67237 93.86 1.60155 94.0127 1.54688Z" fill="#C7CCDA"/>
        <path d="M57.5219 7.06884C57.7205 6.88991 57.9242 6.89861 58.1328 7.0502C57.9292 7.05641 57.7255 7.06262 57.5219 7.06884Z" fill="#C7CCDA"/>
        <path d="M123.574 11.1656C123.408 11.4203 123.245 11.3023 123.082 11.1619C123.246 11.1619 123.41 11.1644 123.574 11.1656Z" fill="#C7CCDA"/>
        <path d="M53.4187 16.8924C53.2088 17.0465 53.0027 17.0626 52.8027 16.875C53.0101 16.8079 53.2138 16.8626 53.4187 16.8924Z" fill="#C7CCDA"/>
        <path d="M147.538 0.761768C147.341 0.900933 147.215 0.869869 147.186 0.612663C147.335 0.587812 147.436 0.676032 147.538 0.761768Z" fill="#C7CCDA"/>
        <path d="M145.54 0.612665C145.504 0.857446 145.39 0.914603 145.188 0.760527C145.291 0.676034 145.392 0.587814 145.54 0.612665Z" fill="#C7CCDA"/>
        <path d="M34.9088 11.439C34.92 11.4017 34.9212 11.3594 34.9423 11.3296C34.9858 11.2675 35.0342 11.2824 35.0367 11.3532C35.0442 11.5036 35.0827 11.6639 34.9411 11.7819C34.9299 11.6676 34.92 11.5533 34.9088 11.439Z" fill="#C7CCDA"/>
        <path d="M57.6373 0.144043C57.4312 0.308059 57.2263 0.294391 57.0214 0.144043C57.2263 0.144043 57.4324 0.144043 57.6373 0.144043Z" fill="#C7CCDA"/>
        <path d="M121.46 10.82C121.291 10.9145 121.12 11.0499 120.97 10.7952L121.46 10.82Z" fill="#C7CCDA"/>
        <path d="M118.609 10.7866C118.415 10.9879 118.209 10.9668 117.998 10.8177L118.609 10.7866Z" fill="#C7CCDA"/>
        <path d="M54.6668 0.145329C54.4606 0.288222 54.2545 0.314315 54.0496 0.141602C54.2557 0.141602 54.4606 0.144087 54.6668 0.145329Z" fill="#C7CCDA"/>
        <path d="M142.719 10.6797C142.623 10.6648 142.527 10.6499 142.373 10.625C142.611 10.5157 142.778 10.5119 142.938 10.6362C142.865 10.6511 142.792 10.6648 142.719 10.6797Z" fill="#C7CCDA"/>
        <path d="M79.6257 18.5996C79.8306 18.4343 80.0355 18.4306 80.2392 18.6008C80.0343 18.6008 79.8306 18.6008 79.6257 18.5996Z" fill="#C7CCDA"/>
        <path d="M83.9711 18.602C84.1747 18.4306 84.3784 18.4343 84.5845 18.5983C84.3796 18.5983 84.176 18.6008 83.9711 18.602Z" fill="#C7CCDA"/>
        <path d="M127.292 14.6446C127.27 13.7599 126.846 13.0554 126.265 12.4353C125.631 11.7569 125.621 11.7669 126.311 11.0996C126.723 10.7008 127.139 10.3044 127.167 9.67441C127.069 9.45821 127.117 9.22834 127.117 9.00592C127.113 6.82774 127.111 4.64956 127.117 2.47138C127.117 2.14583 127.057 1.81532 127.166 1.4935C127.133 1.39906 127.115 1.29469 127.065 1.2102C126.67 0.545435 125.98 0.498218 125.334 0.470882C124.33 0.428636 123.822 0.897075 123.707 1.88738C123.677 2.1421 123.544 2.29245 123.346 2.326C122.925 2.39683 122.513 2.52854 122.061 2.4018C121.659 2.28872 121.26 2.18435 121.236 1.71094C121.201 1.03748 120.745 0.82128 120.23 0.615017C119.897 0.480822 119.567 0.576498 119.236 0.556618C118.526 0.513129 117.957 0.895832 117.75 1.61775C117.809 2.03152 117.901 2.44529 117.703 2.84911C117.521 3.22436 117.27 3.54991 116.823 3.56233C115.702 3.5934 114.574 3.73256 113.46 3.46293C113.229 3.41696 113.093 3.27406 113.037 3.04916C113.008 2.7845 112.959 2.51984 112.954 2.25393C112.934 1.16049 112.724 0.884649 111.74 0.541707C111.488 0.453486 111.332 0.651051 111.098 0.613775C110.263 0.482065 109.608 0.996478 109.442 1.86874C109.516 4.17988 109.51 6.49225 109.444 8.80339C109.466 9.34265 109.67 9.77381 110.171 10.0298C110.539 10.0646 110.877 10.2447 111.258 10.2385C114.203 10.1876 117.15 10.3354 120.094 10.154C120.44 10.041 120.772 9.90925 120.979 9.57998C121.118 9.38862 121.063 9.11154 121.259 8.94504C121.519 8.64683 121.903 8.59837 122.239 8.45547C122.428 8.32749 122.617 8.32376 122.805 8.45547C123.108 8.60831 123.473 8.6431 123.699 8.93758C123.827 9.13639 123.77 9.34265 123.722 9.54767C123.695 9.78748 123.816 9.98132 123.927 10.1727C124.202 10.6486 124.065 10.9679 123.573 11.1655C123.408 11.2748 123.244 11.2587 123.081 11.1617C122.541 11.0487 121.999 10.9344 121.459 10.8213C121.293 10.8623 121.126 10.9107 120.969 10.7964C120.183 10.615 119.396 10.6411 118.609 10.7865C118.412 10.9145 118.204 10.8685 117.998 10.8176C117.726 10.7604 117.499 10.9542 117.254 10.9679C116.006 11.0412 114.891 11.491 113.91 12.2167C111.801 13.7773 111.909 16.3692 114.11 17.8081C115.365 18.6294 116.771 18.9699 118.246 19.0842C118.577 19.042 118.908 18.9674 119.23 19.1302C119.69 19.2259 120.149 19.2532 120.605 19.1103C120.887 18.9749 121.175 19.0432 121.462 19.0879C122.937 18.9786 124.374 18.6829 125.596 17.8205C126.465 17.2067 127.286 16.4798 127.295 15.2584C127.209 15.0546 127.209 14.8496 127.295 14.6446H127.292ZM117.709 7.6851C117.531 8.11874 117.161 8.30388 116.748 8.43559C115.838 8.54121 114.929 8.52381 114.019 8.44553C113.833 8.30761 113.613 8.33122 113.402 8.31258C113.243 8.20696 113.084 8.10011 113.037 7.89633C113.029 7.83544 113.022 7.77332 113.013 7.71243C112.788 6.10706 113.047 5.45349 114.788 5.53674C115.344 5.56283 115.904 5.54916 116.462 5.5504C117.052 5.55165 117.498 5.77903 117.73 6.34688C117.837 6.79419 117.866 7.24026 117.71 7.68385L117.709 7.6851ZM123.722 5.95175C123.526 6.40652 123.046 6.38291 122.686 6.56184C122.536 6.67242 122.384 6.67367 122.234 6.56184C121.868 6.39906 121.402 6.40279 121.208 5.95175C121.131 5.62123 121.118 5.29195 121.218 4.96268C121.879 4.23579 123.035 4.23828 123.717 4.96641C123.829 5.29444 123.883 5.62247 123.723 5.95299L123.722 5.95175ZM123.347 15.8809C122.453 17.1533 121.147 17.4689 119.701 17.4192C119.042 17.3968 118.394 17.3036 117.781 17.0241C116.974 16.6563 116.391 16.1009 116.145 15.2323C116.024 15.0472 116.015 14.862 116.15 14.6781C116.385 13.571 117.167 12.9995 118.173 12.7062C119.685 12.2664 121.15 12.3198 122.551 13.1647C123.11 13.5014 123.312 14.0233 123.56 14.5489C123.713 15.0285 123.695 15.4821 123.347 15.8809Z" fill="#C7CCDA"/>
        <path d="M116.605 5.42878H114.029C114.029 5.4089 114.029 5.38902 114.029 5.36914H116.586C116.592 5.38902 116.598 5.4089 116.605 5.42878Z" fill="#C7CCDA"/>
        <path d="M114.02 8.44671C114.929 8.44298 115.84 8.4405 116.749 8.43677C115.84 8.65049 114.931 8.63185 114.02 8.44671Z" fill="#C7CCDA"/>
        <path d="M123.347 15.8811C123.516 15.4524 123.631 15.015 123.56 14.5491C123.847 14.9666 123.753 15.5555 123.347 15.8811Z" fill="#C7CCDA"/>
        <path d="M123.722 5.95313C123.719 5.62386 123.718 5.29583 123.716 4.96655C123.967 5.29334 124.126 5.62137 123.722 5.95313Z" fill="#C7CCDA"/>
        <path d="M117.71 7.68512C117.716 7.23905 117.724 6.79298 117.73 6.34814C117.961 6.79795 117.961 7.24278 117.71 7.68512Z" fill="#C7CCDA"/>
        <path d="M121.218 4.96265C121.215 5.29192 121.212 5.62244 121.208 5.95171C121.03 5.61995 121.023 5.29068 121.218 4.96265Z" fill="#C7CCDA"/>
        <path d="M116.15 14.6781C116.149 14.8633 116.146 15.0472 116.145 15.2323C115.851 15.077 116.043 14.8421 116.05 14.6371C116.05 14.6371 116.088 14.6322 116.104 14.6396C116.122 14.6471 116.135 14.6657 116.15 14.6781Z" fill="#C7CCDA"/>
        <path d="M122.235 6.56177C122.386 6.56177 122.537 6.56177 122.687 6.56177C122.536 6.78046 122.386 6.77673 122.235 6.56177Z" fill="#C7CCDA"/>
        <path d="M113.037 7.89771C113.159 8.03687 113.28 8.17479 113.402 8.31396C113.14 8.29905 113.019 8.15864 113.037 7.89771Z" fill="#C7CCDA"/>
        <path d="M38.5735 4.77502C38.3835 4.85578 38.2581 4.86696 38.1289 4.77874C38.2568 4.68555 38.3835 4.70171 38.5735 4.77502Z" fill="#C7CCDA"/>
        <path d="M81.7196 2.14959C81.6873 1.16301 81.1123 0.47091 80.253 0.479608C79.2992 0.488305 78.5938 0.700781 78.4001 1.86629C78.4535 2.31982 78.5106 2.77459 78.3691 3.22439C78.1666 3.34989 77.963 3.47414 77.7606 3.59964C77.47 3.6978 77.1794 3.70774 76.8937 3.58224C76.4293 3.37598 76.0282 3.14238 75.7761 2.63542C75.0682 1.21644 73.8313 0.55416 72.2914 0.393872C72.0467 0.462212 71.8021 0.463455 71.5575 0.393872C71.2532 0.320562 71.0235 0.580254 70.7614 0.595164C70.0138 0.637411 69.4376 0.987808 68.916 1.47613C68.8825 1.69482 68.7123 1.77558 68.5372 1.85138C67.4208 3.09019 67.0967 4.61355 66.9663 6.20774C67.0333 6.41152 67.0855 6.61654 66.9501 6.81534C66.7701 7.4391 66.8173 8.06534 66.9216 8.69407C67.1017 8.92767 67.0284 9.17742 66.9675 9.42717C66.9638 10.1541 67.1401 10.8536 67.35 11.5358C68.2851 14.5875 70.8868 15.6598 73.3917 14.8857C75.1415 14.3439 75.9686 12.9461 76.4094 11.2773C76.4939 10.958 76.6143 10.7082 76.9186 10.5666C77.3234 10.4548 77.727 10.3964 78.1219 10.6039C78.2474 10.7318 78.3927 10.8486 78.4001 11.0499C78.4721 13.115 78.4734 15.1789 78.4001 17.244C78.5914 18.2194 78.8199 18.4729 79.6258 18.6021C79.8307 18.5226 80.0344 18.5189 80.2393 18.6034C81.0478 18.5226 81.4973 18.1399 81.6302 17.3807C81.6873 17.0589 81.7209 16.7284 81.7209 16.4003C81.7271 12.4975 81.7246 8.59342 81.7246 4.69059C81.7246 3.84442 81.7469 2.997 81.7196 2.15083V2.14959ZM73.2526 11.5619C73.1222 12.2477 72.8602 12.9138 72.1709 13.2791C71.9611 13.3362 71.7475 13.4307 71.5599 13.2256C70.9291 12.9796 70.7267 12.4006 70.5727 11.839C70.3913 11.1742 70.3069 10.4821 70.1802 9.80242C70.0709 9.60237 70.1467 9.38617 70.1231 9.1799C70.1405 8.93512 70.0834 8.68537 70.1628 8.44432C70.1628 7.98582 70.1628 7.52732 70.1616 7.06882C70.0846 6.82777 70.1392 6.5805 70.1231 6.33696C70.143 6.12946 70.0759 5.9145 70.174 5.71321C70.2957 5.02732 70.4013 4.33895 70.5441 3.65804C70.672 3.04795 71.0098 2.56584 71.5488 2.23532C71.7984 2.15207 72.0468 2.11107 72.2877 2.26017C72.5509 2.45774 72.7658 2.70004 72.9397 2.97961C73.1408 3.18463 73.2762 3.41201 73.198 3.71519C73.7642 6.32702 73.7493 8.94631 73.2514 11.5619H73.2526ZM78.3119 8.3064C78.2076 8.37971 78.1046 8.45302 78.0002 8.52757C77.7606 8.69531 77.5134 8.6481 77.2651 8.5549C77.0626 8.43189 76.9062 8.26663 76.7907 8.06162C76.6317 7.6553 76.7025 7.24278 76.7534 6.83025C76.7596 6.72837 76.7696 6.62523 76.772 6.52335C76.782 6.16301 76.6888 5.7393 77.2017 5.63865C77.6811 5.54546 78.1542 5.52807 78.4014 6.08597C78.4113 6.82777 78.5802 7.57578 78.3132 8.3064H78.3119Z" fill="#C7CCDA"/>
        <path d="M78.3119 8.30514C78.4721 7.56956 78.3193 6.82279 78.4001 6.08472C78.5131 6.83024 78.682 7.57825 78.3119 8.30514Z" fill="#C7CCDA"/>
        <path d="M76.7534 6.82788C76.7658 7.23792 76.7782 7.6492 76.7906 8.05924C76.5398 7.65542 76.5969 7.24289 76.7534 6.82788Z" fill="#C7CCDA"/>
        <path d="M73.2003 3.71532C73.1146 3.47054 73.0277 3.22452 72.942 2.97974C73.286 3.13381 73.3717 3.37984 73.2003 3.71532Z" fill="#C7CCDA"/>
        <path d="M70.1652 6.32696C70.1652 6.57423 70.1652 6.82025 70.164 7.06752C69.974 6.84138 70.0957 6.57299 70.0647 6.32572C70.0994 6.27105 70.133 6.27354 70.1665 6.32572L70.1652 6.32696Z" fill="#C7CCDA"/>
        <path d="M70.1652 8.44189C70.1652 8.68916 70.1652 8.93643 70.1652 9.18369C70.1329 9.23712 70.1007 9.23837 70.0659 9.18494C70.0957 8.93643 69.9727 8.66804 70.1665 8.44189H70.1652Z" fill="#C7CCDA"/>
        <path d="M77.265 8.5537C77.5097 8.545 77.7556 8.53506 78.0002 8.52637C77.7642 8.77612 77.5171 8.7463 77.265 8.5537Z" fill="#C7CCDA"/>
        <path d="M72.2901 2.25884L71.5511 2.23399C71.8045 2.05382 72.0516 2.02152 72.2901 2.25884Z" fill="#C7CCDA"/>
        <path d="M70.0646 9.18608C70.0982 9.18484 70.1305 9.1836 70.164 9.18484C70.1702 9.3911 70.1752 9.59612 70.1814 9.80239C69.9839 9.62719 70.0845 9.39607 70.0646 9.18733V9.18608Z" fill="#C7CCDA"/>
        <path d="M71.5612 13.2244C71.7648 13.2418 71.9685 13.2604 72.1722 13.2778C71.9523 13.4443 71.7425 13.4977 71.5612 13.2244Z" fill="#C7CCDA"/>
        <path d="M70.1652 6.32695H70.1143H70.0634C70.0857 6.11945 69.9839 5.88958 70.1764 5.71313C70.1727 5.91815 70.169 6.12317 70.1652 6.32819V6.32695Z" fill="#C7CCDA"/>
        <path d="M148.126 1.80158C148.126 1.71957 148.136 1.82519 148.146 1.74318C148.137 1.29587 147.934 0.969076 147.538 0.760329C147.387 0.791392 147.264 0.752874 147.186 0.611224C146.637 0.416144 146.089 0.418629 145.54 0.611224C145.461 0.751631 145.34 0.792635 145.187 0.759086C144.846 0.899494 144.688 1.14925 144.682 1.52201C144.672 2.04885 144.35 2.31972 143.877 2.48622C143.282 2.69497 142.74 2.51853 142.337 2.14452C141.351 1.22753 140.185 0.685776 138.9 0.450935C138.464 0.371412 137.982 0.0110744 137.5 0.367685C136.883 0.213609 136.246 0.406204 135.628 0.265796C134.038 0.354017 132.565 0.771512 131.353 1.85377C130.804 2.34457 130.448 2.96088 130.417 3.72504C130.509 4.01207 130.499 4.2991 130.422 4.58612C130.43 5.10054 130.627 5.54785 130.943 5.93677C132.25 7.54214 134.057 7.96088 136.003 8.03916C136.396 7.94845 136.799 8.03916 137.195 7.98697C137.208 7.98697 137.223 7.98448 137.237 7.98324C137.237 8.00436 137.237 8.02549 137.237 8.04661C137.505 8.06028 137.774 8.0727 138.026 7.95342C137.862 7.95094 137.698 7.94845 137.533 7.94596C137.805 7.90372 138.075 7.85774 138.352 7.92733C139.655 7.71982 140.833 7.26754 141.735 6.24741C142.007 5.9405 142.301 5.65098 142.604 5.3739C143.423 4.6234 144.077 4.69423 144.675 5.58637C144.855 6.35551 144.744 7.13458 144.744 7.90745C144.744 9.48796 144.81 11.0697 144.706 12.6502C144.716 13.1696 144.866 13.643 145.33 13.9127C146.221 14.4308 148.008 14.2221 148.142 12.6478C148.065 9.03195 148.093 5.41739 148.128 1.80158H148.126ZM138.301 5.94671C137.878 6.15173 137.436 6.23374 136.985 6.31078C136.78 6.43006 136.575 6.42882 136.371 6.31078C136.054 6.10203 135.671 6.22131 135.32 6.07594C134.546 5.75412 133.983 5.28071 133.747 4.46063C133.673 4.25809 133.678 4.05432 133.744 3.85054C134.096 2.58438 135.121 2.21286 136.246 1.97554C136.533 1.89229 136.82 1.8985 137.108 1.97181C137.821 2.1408 138.568 2.28245 139.087 2.84035C140.075 3.90024 139.702 5.2658 138.301 5.94547V5.94671Z" fill="#C7CCDA"/>
        <path d="M137.108 1.97311L136.246 1.97684C136.533 1.7917 136.82 1.79791 137.108 1.97311Z" fill="#C7CCDA"/>
        <path d="M136.371 6.31201C136.576 6.31201 136.781 6.31201 136.985 6.31201C136.78 6.51827 136.576 6.51952 136.371 6.31201Z" fill="#C7CCDA"/>
        <path d="M133.744 3.85181C133.744 4.05558 133.746 4.25812 133.747 4.4619C133.577 4.25936 133.586 4.05558 133.744 3.85181Z" fill="#C7CCDA"/>
        <path d="M63.5784 3.11001C63.3362 2.16195 62.652 1.61274 61.8224 1.22134C61.1543 0.905733 60.4973 0.61125 59.7249 0.511846C59.0332 0.423626 58.344 0.213636 57.6361 0.144053C57.4312 0.213636 57.225 0.213636 57.0201 0.144053L57.0301 0.101807C56.239 0.101807 55.4467 0.101807 54.6556 0.103049L54.6668 0.146538C54.4606 0.211151 54.2545 0.218606 54.0496 0.142811C53.2759 0.247184 52.5159 0.447234 51.7534 0.577701C50.6519 0.765325 49.7031 1.17412 48.8698 1.87865C48.2687 2.38809 48.0129 3.05037 48.0638 3.85429C48.1234 4.78744 48.7332 5.34535 49.4137 5.7939C50.6568 6.61398 52.0912 6.89977 53.5528 7.05012C53.759 6.99544 53.9651 6.96314 54.1663 7.06875C54.5749 7.19674 54.9959 7.17189 55.4156 7.17313C55.7013 7.111 55.9869 7.10603 56.2725 7.17561C56.6923 7.17437 57.1133 7.19301 57.5218 7.06875C57.723 6.96438 57.9279 6.9942 58.1328 7.05012C59.2816 6.95444 60.3905 6.69351 61.4499 6.24122C62.4098 5.83242 63.2232 5.26085 63.5734 4.2109C63.5238 3.84311 63.5126 3.47656 63.5796 3.11001H63.5784ZM59.7398 3.945C59.3126 4.84957 58.4371 5.00489 57.5976 5.20742C57.2846 5.28322 56.9556 5.29316 56.665 5.45469C56.47 5.32298 56.2328 5.45842 56.0341 5.35529L55.7745 5.36398C55.5299 5.40996 55.284 5.42363 55.0406 5.35529C53.841 5.27701 52.6898 5.09187 51.9645 3.96364C51.8068 3.76483 51.8378 3.55981 51.9496 3.35479C52.4637 2.31726 53.4572 2.15201 54.4482 1.98799C54.7661 1.9358 55.089 1.90847 55.4094 1.86995C55.6541 1.75439 55.9012 1.77924 56.1496 1.85255C56.8835 2.01284 57.6498 1.96935 58.3688 2.24023C58.9636 2.46388 59.4629 2.77825 59.7423 3.37218C59.8541 3.56354 59.859 3.75613 59.7386 3.94624L59.7398 3.945Z" fill="#C7CCDA"/>
        <path d="M59.7399 3.94515C59.7399 3.7538 59.7424 3.56245 59.7436 3.37109C60.0193 3.53262 59.8405 3.76747 59.8405 3.97373C59.8405 3.97621 59.8044 3.98491 59.7883 3.97994C59.7709 3.97497 59.756 3.95757 59.7411 3.94515H59.7399Z" fill="#C7CCDA"/>
        <path d="M56.1508 1.85149C55.9037 1.8577 55.6578 1.86392 55.4106 1.86889C55.6528 1.66635 55.8999 1.67753 56.1508 1.85149Z" fill="#C7CCDA"/>
        <path d="M55.0406 5.354C55.2853 5.35649 55.5299 5.36022 55.7746 5.3627C55.5287 5.50932 55.2828 5.5205 55.0406 5.354Z" fill="#C7CCDA"/>
        <path d="M56.0341 5.35535C56.2477 5.36902 56.4849 5.23109 56.6649 5.45475C56.4526 5.43487 56.2216 5.53427 56.0341 5.35535Z" fill="#C7CCDA"/>
        <path d="M51.9509 3.35352L51.9658 3.96236C51.7286 3.7648 51.7448 3.56102 51.9509 3.35352Z" fill="#C7CCDA"/>
        <path opacity="0.3" d="M20.0908 6.63646C19.6338 6.25376 18.952 6.09471 18.7483 5.42871C18.5484 5.74929 18.608 6.18791 18.2826 6.45133C18.2851 6.57558 18.2876 6.70108 18.2901 6.82533C18.4143 7.39442 18.1299 7.78085 17.7499 8.12379C17.73 8.14616 17.7064 8.16728 17.6791 8.18716C17.5102 8.48537 17.3426 8.78234 17.1737 9.08055C16.9576 9.62603 16.631 10.1094 16.3106 10.5952C16.241 10.8313 16.1106 11.0301 15.938 11.2041C15.6089 11.8079 15.2376 12.382 14.7806 12.8976C14.5111 13.3139 14.2317 13.7215 13.8306 14.0271C13.3947 14.7006 12.8768 15.2982 12.2248 15.7729C12.1292 15.9332 11.9926 16.0475 11.8274 16.1307C11.4611 16.4948 11.0724 16.8291 10.5781 17.0154C10.5781 17.0154 10.5769 17.0167 10.5756 17.0179C10.9209 17.2739 11.2674 17.5274 11.6958 17.6317C11.8659 17.7336 12.0373 17.8355 12.318 18.0033C11.4052 17.9362 10.6973 17.592 9.95844 17.3658C9.91994 17.4044 9.87399 17.4205 9.82307 17.418C9.70386 17.5721 9.5213 17.592 9.33751 17.6119C8.94384 17.3721 8.51043 17.5485 8.09937 17.4938C7.78394 17.4565 7.53805 17.2552 7.25863 17.1347C7.25863 17.136 7.25739 17.1372 7.25614 17.1385C7.14686 17.2055 7.03882 17.1844 6.92953 17.1385C6.65757 16.9272 6.29743 16.8303 6.10742 16.511C5.84415 16.3556 5.64669 16.1332 5.46538 15.8934C5.31139 15.7543 5.15615 15.6139 5.00216 15.4747C4.80347 15.3045 4.75379 15.0062 4.49548 14.887C4.82582 16.3842 5.41446 17.7635 6.35704 18.9849C6.83267 19.6012 7.41262 20.005 8.22107 19.9975C10.2354 20.041 11.8523 19.0458 13.4493 17.9995C13.5586 17.9473 13.6766 17.9076 13.7772 17.8405C15.6921 16.5681 17.3798 15.0323 18.8961 13.3127C19.753 12.341 20.5379 11.3134 21.0185 10.0783C21.5686 8.66678 21.2693 7.62553 20.0883 6.63522L20.0908 6.63646Z" fill="#C7CCDA"/>
        <path d="M5.08545 15.3741C5.24689 15.5195 5.41082 15.6611 5.56357 15.8152C5.7722 16.0302 5.98456 16.2427 6.20313 16.4477C6.42542 16.7061 6.75079 16.8229 7.00785 17.0329C7.0389 17.0627 7.06622 17.095 7.08982 17.1298C7.13701 17.1273 7.18544 17.1249 7.23263 17.1211C7.60146 17.0006 7.87343 17.3721 8.22985 17.3162C8.61234 17.3858 9.0619 17.1597 9.36739 17.5722C9.36491 17.5771 9.36243 17.5821 9.35994 17.5871C9.45805 17.4703 9.57975 17.4057 9.72008 17.3783C9.22458 17.1522 8.81849 16.7745 8.32423 16.5471C7.68715 15.8749 7.06746 15.1877 6.54215 14.4211C6.49869 14.344 6.46516 14.2633 6.43784 14.18C6.3447 13.9315 6.18822 13.7066 6.12613 13.4507C5.96717 12.7946 5.50892 12.3771 5.0097 11.9869C4.96499 11.9559 4.92152 11.9236 4.87682 11.8925C4.39001 11.4365 3.93921 10.9469 3.54802 10.4052C3.41763 10.1592 3.28723 9.91437 3.15684 9.66835C2.25897 7.80702 2.47009 5.99414 3.39652 4.21358C3.42011 3.99365 3.68835 3.87809 3.64613 3.63082C3.91065 3.44071 4.10686 3.19096 4.26582 2.91015C4.71662 2.25657 5.22578 1.66636 5.98704 1.35697C6.54588 1.22526 6.99047 0.811489 7.56545 0.719541C7.67846 0.657413 7.72689 0.726996 7.76291 0.818944C7.68591 1.12337 7.38041 1.16313 7.18047 1.3259C6.77687 1.58187 6.36954 1.83162 6.05038 2.19693C5.535 2.67406 5.10035 3.21333 4.78368 3.8433C3.83862 5.62014 3.78398 7.40816 4.7042 9.21109C4.95878 9.74911 5.38101 10.1679 5.70762 10.6549C5.72128 10.6748 5.73122 10.6748 5.73743 10.6661C5.73867 10.6524 5.73991 10.6388 5.74115 10.6251C5.73619 10.6152 5.72625 10.6127 5.71011 10.6338C5.54246 10.4847 5.60703 10.2971 5.63435 10.1219C5.65919 9.96159 5.70514 9.80379 5.7039 9.63977C5.73246 9.03589 5.96469 8.49414 6.20685 7.95488C6.29875 7.73495 6.40431 7.52123 6.50987 7.30751C6.74209 6.91363 6.99668 6.53341 7.26119 6.16064C7.47852 5.90592 7.65362 5.61641 7.90199 5.38778C8.17024 5.10075 8.48319 4.86716 8.79241 4.62859C8.88679 4.56025 8.98242 4.49688 9.10909 4.52794C9.13641 4.50185 9.16 4.47575 9.1836 4.44966C9.20471 4.45215 9.22582 4.4509 9.24817 4.45339C9.61452 4.25458 9.98087 4.05577 10.3472 3.85697C10.3472 3.85697 10.3485 3.85448 10.3497 3.85448C10.3497 3.85448 10.3497 3.85448 10.3509 3.85448C10.4739 3.6271 10.7173 3.60349 10.9222 3.51527C11.0501 3.47178 11.1805 3.43574 11.3084 3.39225C11.4574 3.34752 11.6139 3.33137 11.758 3.26676C11.8536 3.23445 11.9492 3.16984 12.0511 3.2506V3.24439C12.3193 3.33386 12.5987 3.26551 12.8719 3.29161C13.2246 3.29782 13.5773 3.26427 13.9288 3.31149C14.0132 3.32143 14.0989 3.33137 14.1833 3.34131C14.1895 3.34131 14.1958 3.33883 14.202 3.33883C14.2057 3.34255 14.2082 3.34628 14.2119 3.35001C14.6167 3.46184 15.0216 3.57242 15.4264 3.68425C15.5506 3.7352 15.6761 3.78614 15.8002 3.83709C16.2125 3.84951 16.5168 4.06944 16.7863 4.35274H16.7826C16.9092 4.54161 17.2284 4.53664 17.2569 4.82367C17.0583 5.00135 16.8645 4.84976 16.6683 4.81497C16.4473 4.73669 16.2262 4.65841 16.0089 4.57143C15.7866 4.48818 15.5568 4.43475 15.3221 4.4012C15.1371 4.38381 14.9508 4.38878 14.7658 4.38753C14.1647 4.41735 13.5475 4.28937 12.975 4.58013C12.5006 4.81621 11.9132 4.75284 11.4947 5.13927C11.4574 5.184 11.414 5.22377 11.3693 5.26104C11.2525 5.34678 11.1197 5.40393 10.9868 5.45861C10.6838 5.55553 10.4751 5.77297 10.2802 6.00905C9.92747 6.27372 9.58596 6.54956 9.30903 6.89747C9.06438 7.19817 8.89673 7.54857 8.69058 7.87411C8.57881 8.03937 8.49809 8.21954 8.42854 8.40592C8.21743 8.99862 7.99638 9.58758 7.90075 10.2138C7.88088 10.7668 7.79271 11.3222 7.94422 11.8701C8.05723 12.0429 8.24848 12.0764 8.42358 12.136C8.56142 12.1758 8.6943 12.2267 8.83836 12.2404C9.0234 12.2553 9.20844 12.2628 9.3885 12.3063C10.0964 12.469 10.7856 12.31 11.4773 12.1944C11.7605 12.1336 12.0486 12.0876 12.3205 11.9795C12.4758 11.9236 12.6173 11.844 12.7477 11.7446C12.7925 11.7111 12.8396 11.6825 12.8881 11.6564C13.247 11.4936 13.581 11.2874 13.9014 11.0588C14.1063 10.9444 14.2951 10.7668 14.5596 10.8985C14.6701 11.3744 14.1995 11.4713 14.0058 11.7509C13.4891 12.228 12.8396 12.4877 12.2324 12.8157C11.948 12.9748 11.6425 13.0717 11.3345 13.1587C11.3345 13.1587 11.3345 13.1587 11.3357 13.1587C11.332 13.1611 11.3295 13.1636 11.3258 13.1661C11.3258 13.1649 11.3258 13.1636 11.3258 13.1611C11.1221 13.2183 10.9172 13.273 10.7173 13.3388C10.4615 13.4382 10.1945 13.4469 9.92623 13.4507C9.49903 13.4469 9.07059 13.4681 8.64463 13.4507C8.51548 13.4879 8.31305 13.3227 8.2671 13.5898C8.50057 14.3627 8.90045 15.0411 9.40092 15.6661C9.66668 15.9743 9.85917 16.352 10.2367 16.557C10.3857 16.6862 10.5583 16.7993 10.5745 17.0242C10.5745 17.0242 10.577 17.0242 10.5782 17.023C10.8775 16.6042 11.3767 16.4253 11.7319 16.0737C11.8822 15.9444 12.02 15.7978 12.1802 15.6798C12.8098 15.2225 13.2457 14.5901 13.7077 13.9837C14.0616 13.6209 14.4044 13.2506 14.6838 12.8244C15.1023 12.2914 15.4699 11.7235 15.8338 11.1532C15.9878 10.9544 16.1107 10.7357 16.2138 10.5058C16.4957 10.0125 16.8235 9.54534 17.0707 9.03217C17.247 8.73395 17.3551 8.39598 17.5997 8.13877C17.9288 7.75234 18.2442 7.36094 18.1759 6.8018C18.1536 6.685 18.1486 6.5682 18.1846 6.45264C18.2852 6.30851 18.4019 6.19419 18.4193 5.98296C18.4367 5.78415 18.4765 5.51825 18.7472 5.435C18.7882 4.93922 19.0514 4.48197 19.008 3.97004C19.0067 3.56124 19.0055 3.15244 19.0042 2.7424C18.9459 2.10498 18.5634 1.71358 18.0157 1.44891C17.8208 1.13082 17.5165 1.02272 17.1638 1.00781C16.8881 0.997871 16.7304 0.657413 16.4199 0.743149C16.2883 0.584103 16.1033 0.63132 15.9344 0.617652C15.7593 0.449908 15.5332 0.517006 15.3271 0.487185C14.8738 0.34305 14.4106 0.267254 13.935 0.272225C13.7388 0.261042 13.5425 0.249859 13.3451 0.237433C13.011 0.105724 12.6658 0.114421 12.3181 0.146728C11.5344 0.146728 10.7508 0.149213 9.96845 0.149213C9.80204 0.149213 9.63564 0.149213 9.47047 0.149213C9.17863 0.185246 8.88679 0.22128 8.59495 0.256071C8.39129 0.261042 8.18638 0.267254 7.98272 0.272225C7.56918 0.319441 7.15688 0.366658 6.74334 0.413875C6.1609 0.517006 5.5586 0.519491 4.99976 0.748119C4.9178 0.756817 4.83708 0.764272 4.75511 0.77297C4.66197 0.801549 4.56883 0.830127 4.47694 0.857463C4.21863 0.84131 3.9864 0.939471 3.74921 1.01899C3.36423 1.09355 2.98919 1.19544 2.63898 1.37809C2.3993 1.37933 2.21178 1.51228 2.01556 1.62411C1.73118 1.67382 1.48901 1.80801 1.27293 1.99563C0.957497 2.11989 0.714092 2.33361 0.512911 2.60075C0.202445 2.86417 0.137868 3.23818 0.0583887 3.60597C0.0534213 3.80851 0.0484538 4.01104 0.0447282 4.21358L-0.0012207 4.34404C0.0472119 5.31944 0.223557 6.26999 0.548925 7.19196C0.67932 7.61815 0.771218 8.05801 1.00469 8.44693C1.18352 9.06447 1.41326 9.66089 1.74732 10.2126C1.9721 10.8189 2.24903 11.3992 2.62905 11.9261C2.86376 12.5187 3.23507 13.0269 3.61012 13.5339C3.80136 13.9017 4.01869 14.2496 4.31922 14.5404C4.37014 14.6186 4.4223 14.6969 4.47321 14.7764C4.47694 14.815 4.48563 14.8522 4.49681 14.8883C4.87806 14.8274 4.86812 15.2362 5.08421 15.3741H5.08545ZM7.47355 4.70811C7.31832 5.0349 7.1159 5.3269 6.83275 5.55801C6.83523 5.5605 6.83648 5.56422 6.83896 5.56795C6.83399 5.56795 6.82903 5.56795 6.82406 5.56671C6.54464 5.85498 6.21927 5.80652 5.88397 5.69593C5.51886 5.52943 5.22578 5.27968 5.00349 4.94668L4.96499 4.71681C4.69178 4.50806 4.8793 4.3018 4.96996 4.09553C5.02957 3.69295 5.30526 3.45562 5.61573 3.24315C5.98704 3.12635 6.35836 3.12262 6.72843 3.24563C6.7719 3.27049 6.81536 3.29534 6.86007 3.31894C7.15067 3.51651 7.29969 3.82342 7.46486 4.11666C7.5878 4.31298 7.57042 4.51055 7.47355 4.70935V4.70811ZM12.0647 3.22824C12.0647 3.22824 12.0747 3.23942 12.0796 3.24563C12.0709 3.24563 12.0622 3.24563 12.0535 3.24563C12.0573 3.23942 12.061 3.23445 12.0635 3.22824H12.0647Z" fill="#C7CCDA"/>
        <path d="M11.3282 13.156C11.3282 13.156 11.3282 13.156 11.3282 13.1573C11.3307 13.1573 11.3332 13.156 11.3357 13.1548C11.3332 13.1548 11.3307 13.1548 11.3282 13.1548V13.156Z" fill="#C7CCDA"/>
        <path d="M12.8346 11.8054C12.8346 11.8054 12.8346 11.8054 12.8346 11.8067C12.9228 11.7545 12.9985 11.6986 13.0643 11.6389C12.9836 11.6899 12.9054 11.742 12.8358 11.8042L12.8346 11.8054Z" fill="#C7CCDA"/>
        <path d="M11.9567 17.8977C12.0275 17.9238 12.1044 17.9474 12.1889 17.9685C12.1044 17.9362 12.0262 17.9176 11.9567 17.8977Z" fill="#C7CCDA"/>
        <path d="M9.84552 17.3521C9.84552 17.3521 9.83807 17.3607 9.83434 17.3657C9.79461 17.3682 9.75735 17.3732 9.72009 17.3806C9.74866 17.3931 9.77474 17.408 9.8033 17.4191C9.81075 17.4191 9.81696 17.4191 9.82441 17.4191C9.83807 17.4018 9.85049 17.3844 9.86291 17.3632C9.8567 17.3595 9.85173 17.3558 9.84676 17.3521H9.84552Z" fill="#C7CCDA"/>
    </g>
    <defs>
        <clipPath id="clip0_133_342">
            <rect width="149" height="20" fill="white"/>
        </clipPath>
    </defs>
</svg>
