<svg width="40" height="40" viewBox="0 0 40 40" fill="none" xmlns="http://www.w3.org/2000/svg">
    <path d="M12.5427 37.5175C12.8674 37.5081 13.1756 37.3727 13.4021 37.1399L29.6521 20.8899C29.8865 20.6555 30.0181 20.3376 30.0181 20.0062C30.0181 19.6747 29.8865 19.3568 29.6521 19.1224L13.4021 2.87236C13.2869 2.7524 13.149 2.65662 12.9963 2.59064C12.8437 2.52466 12.6794 2.48981 12.5131 2.48812C12.3468 2.48643 12.1818 2.51794 12.0278 2.5808C11.8739 2.64366 11.734 2.73661 11.6164 2.85421C11.4988 2.9718 11.4058 3.11169 11.343 3.26565C11.2801 3.41962 11.2486 3.58459 11.2503 3.75089C11.252 3.91719 11.2869 4.08148 11.3528 4.23414C11.4188 4.3868 11.5146 4.52476 11.6345 4.63994L27.0008 20.0062L11.6345 35.3724C11.4542 35.548 11.3311 35.774 11.2813 36.0207C11.2315 36.2675 11.2574 36.5235 11.3556 36.7553C11.4537 36.9871 11.6195 37.1839 11.8314 37.3199C12.0432 37.4559 12.2911 37.5248 12.5427 37.5175Z" fill="black"/>
</svg>
