<svg width="35" height="35" viewBox="0 0 35 35" fill="none" xmlns="http://www.w3.org/2000/svg">
    <path fill-rule="evenodd" clip-rule="evenodd" d="M17.0121 6.9856C10.9435 6.9856 6.02417 10.8746 6.02417 15.6721C6.02417 18.7949 8.1087 21.5312 11.2366 23.0624C11.0067 23.9208 10.4044 26.171 10.2837 26.6526C10.1352 27.2503 10.5029 27.2423 10.7437 27.0812C10.9327 26.9554 13.7549 25.0371 14.9725 24.2089C15.6334 24.3068 16.3148 24.3586 17.0121 24.3586C23.0807 24.3586 28 20.469 28 15.6721C28 10.8752 23.0801 6.9856 17.0121 6.9856ZM12.5897 13.1143H9.37692C9.07466 13.1143 8.83046 13.3591 8.83046 13.6608C8.83046 13.9625 9.07523 14.2072 9.37692 14.2072H10.4215V18.0564C10.4215 18.1964 10.4784 18.3342 10.5786 18.4338C10.6765 18.5328 10.8137 18.5897 10.9543 18.5897H11.071C11.211 18.5897 11.3476 18.5328 11.4461 18.4338C11.5463 18.3342 11.6032 18.197 11.6032 18.0564V14.2072H12.5897C12.8919 14.2072 13.1367 13.9625 13.1367 13.6608C13.1367 13.3591 12.8919 13.1143 12.5897 13.1143ZM18.8182 17.5617H20.3125C20.5868 17.5617 20.8083 17.7831 20.8083 18.0575C20.8083 18.3318 20.5874 18.5538 20.3125 18.5538H18.1289C17.8545 18.5538 17.6331 18.3318 17.6331 18.0575C17.6331 18.0256 17.6365 17.9937 17.6422 17.963C17.6371 17.9317 17.6331 17.9009 17.6331 17.8679V13.6305C17.6331 13.3027 17.8983 13.0374 18.2257 13.0374C18.553 13.0374 18.8182 13.3027 18.8182 13.6305V17.5617ZM25.0872 17.7421L23.4222 15.5551L24.9267 14.0501C25.1304 13.8468 25.1304 13.5161 24.9267 13.3123C24.7229 13.1085 24.3927 13.1085 24.1884 13.3123L22.3258 15.1749V13.6305C22.3258 13.3027 22.0606 13.0374 21.7333 13.0374C21.406 13.0374 21.1401 13.3027 21.1401 13.6305V17.9983C21.1401 18.3261 21.4054 18.5914 21.7333 18.5914C22.0611 18.5914 22.3258 18.3267 22.3258 17.9983V16.6509L22.6645 16.3128L24.2396 18.3796C24.4149 18.6136 24.7479 18.662 24.9819 18.485C25.2158 18.3091 25.2631 17.9766 25.0872 17.7421ZM15.5873 13.5031L17.1885 17.8839C17.2858 18.1612 17.1401 18.464 16.8635 18.5613C16.5868 18.6587 16.2834 18.513 16.1861 18.2363L15.914 17.4587H13.7224L13.4498 18.2363C13.3524 18.513 13.049 18.6587 12.7724 18.5613C12.4963 18.464 12.3506 18.1612 12.4479 17.8839L14.0224 13.6602C14.0315 13.6352 14.0424 13.6119 14.0532 13.5885L14.0532 13.5885C14.1175 13.276 14.4408 13.0369 14.8319 13.0369C15.1842 13.0369 15.4797 13.231 15.5821 13.498C15.5833 13.4997 15.5873 13.5031 15.5873 13.5031ZM14.8068 14.3638L14.0703 16.4654H14.0708H15.5668L14.8307 14.3661C14.8265 14.3661 14.8226 14.3655 14.8188 14.365C14.8149 14.3644 14.8111 14.3638 14.8068 14.3638Z" fill="#787C88"/>
</svg>
