<svg width="64" height="64" viewBox="0 0 64 64" fill="none" xmlns="http://www.w3.org/2000/svg">
    <path d="M8 47V22H46V35H48V15C48 13.346 46.654 12 45 12H42V11C42 9.346 40.654 8 39 8H35C33.346 8 32 9.346 32 11V12H24V11C24 9.346 22.654 8 21 8H17C15.346 8 14 9.346 14 11V12H9C7.346 12 6 13.346 6 15V47C6 48.654 7.346 50 9 50H38V48H9C8.448 48 8 47.552 8 47ZM34 11C34 10.448 34.448 10 35 10H39C39.552 10 40 10.448 40 11V15C40 15.552 39.552 16 39 16H35C34.448 16 34 15.552 34 15V11ZM16 11C16 10.448 16.448 10 17 10H21C21.552 10 22 10.448 22 11V15C22 15.552 21.552 16 21 16H17C16.448 16 16 15.552 16 15V11ZM9 14H14V15C14 16.654 15.346 18 17 18H21C22.654 18 24 16.654 24 15V14H32V15C32 16.654 33.346 18 35 18H39C40.654 18 42 16.654 42 15V14H45C45.552 14 46 14.448 46 15V20H8V15C8 14.448 8.448 14 9 14Z" fill="#0638BE"/>
    <path d="M42 37V26H12V44H38V42H33V36H40V37H42ZM31 28V34H23V28H31ZM21 28V34H14V28H21ZM14 36H21V42H14V36ZM31 42H23V36H31V42ZM33 34V28H40V34H33Z" fill="#0638BE"/>
    <path d="M50.793 40.939L45.5 46.232L43.207 43.939L41.793 45.354L45.5 49.061L52.207 42.354L50.793 40.939Z" fill="#0638BE"/>
    <path d="M47 56C40.935 56 36 51.065 36 45C36 38.935 40.935 34 47 34C53.065 34 58 38.935 58 45C58 51.065 53.065 56 47 56ZM47 36C42.037 36 38 40.037 38 45C38 49.963 42.037 54 47 54C51.963 54 56 49.963 56 45C56 40.037 51.963 36 47 36Z" fill="#B6CAFF"/>
</svg>
