<svg width="35" height="35" viewBox="0 0 35 35" fill="none" xmlns="http://www.w3.org/2000/svg">
    <path fill-rule="evenodd" clip-rule="evenodd" d="M17.835 30.67C24.9236 30.67 30.67 24.9236 30.67 17.835C30.67 10.7464 24.9236 5 17.835 5C10.7464 5 5 10.7464 5 17.835C5 24.9236 10.7464 30.67 17.835 30.67ZM26.3176 13.822C26.1255 13.1054 25.5611 12.54 24.8445 12.3489C23.5444 12.0001 18.3332 12.0001 18.3332 12.0001C18.3332 12.0001 13.1211 12.0001 11.8219 12.3489C11.1044 12.54 10.54 13.1045 10.3479 13.822C10 15.1212 10 17.8337 10 17.8337C10 17.8337 10 20.5453 10.3479 21.8453C10.54 22.5629 11.1044 23.1273 11.8219 23.3185C13.122 23.6664 18.3332 23.6664 18.3332 23.6664C18.3332 23.6664 23.5444 23.6664 24.8445 23.3185C25.5611 23.1264 26.1264 22.562 26.3176 21.8453C26.6655 20.5453 26.6655 17.8337 26.6655 17.8337C26.6655 17.8337 26.6655 15.1221 26.3176 13.822ZM16.6662 20.3334L20.9968 17.8338L16.6662 15.3333V20.3334Z" fill="#787C88"/>
</svg>
