<svg width="35" height="35" viewBox="0 0 35 35" fill="none" xmlns="http://www.w3.org/2000/svg">
    <path fill-rule="evenodd" clip-rule="evenodd" d="M25.1177 7.40796H9.33787C7.74604 7.40796 6.45554 8.69847 6.45554 10.2903V19.6556C6.45554 21.2474 7.74604 22.5379 9.33787 22.5379H14.9108L16.807 27.0045C16.807 27.0045 16.9379 27.391 17.2529 27.391C17.5694 27.391 17.6988 27.0045 17.6988 27.0045L19.595 22.5379H25.1177C26.7095 22.5379 28 21.2474 28 19.6556V10.2903C28 8.69847 26.7095 7.40796 25.1177 7.40796ZM13.2231 15.6867C13.214 17.3987 11.4441 17.4474 11.4441 17.4474C10.7593 17.4474 10.3727 16.9939 10.3727 16.9939V17.3029H9.08373V11.9856C9.16438 11.9978 10.3727 11.9826 10.3727 11.9826V14.0157C10.6756 13.4983 11.5521 13.5074 11.5521 13.5074C13.4605 13.6855 13.2216 15.6867 13.2216 15.6867H13.2231ZM9.08373 11.9826C9.07764 11.9841 9.08373 11.9856 9.08373 11.9856V11.9826ZM15.4921 13.6718V17.312H14.2305V13.7083C14.2305 13.2183 13.6218 13.0813 13.6218 13.0813V11.8106C15.6367 11.8928 15.4921 13.6718 15.4921 13.6718ZM18.4825 17.4505C17.3138 17.4505 16.3672 16.5785 16.3672 15.5041C16.3672 14.4297 17.3138 13.5577 18.4825 13.5577C19.6513 13.5577 20.5979 14.4297 20.5979 15.5041C20.5979 16.5785 19.6513 17.4505 18.4825 17.4505ZM25.3946 17.4505C25.3946 17.4505 25.4129 19.2995 23.5335 19.2995H22.9613V18.1018H23.3067C23.3067 18.1018 24.0965 18.1749 24.0874 16.9574C24.0874 16.9574 23.9337 17.4505 22.8258 17.4505C22.8258 17.4505 21.2553 17.3379 21.2553 15.8054V15.2241C21.2553 15.2241 21.2918 13.6353 23.016 13.509C23.016 13.509 23.6963 13.4359 24.1148 13.999V13.6094H25.3946V17.4505ZM17.6851 15.5027C17.6851 15.0613 18.0427 14.7037 18.484 14.7037C18.9254 14.7037 19.283 15.0613 19.283 15.5027C19.283 15.944 18.9254 16.3016 18.484 16.3016C18.0427 16.3016 17.6851 15.944 17.6851 15.5027ZM10.4153 15.5224C10.4153 15.113 10.7471 14.7813 11.1565 14.7813C11.5658 14.7813 11.8976 15.1115 11.8976 15.5224C11.8976 15.9333 11.5658 16.265 11.1565 16.265C10.7471 16.265 10.4153 15.9318 10.4153 15.5224ZM22.6097 15.5025C22.6097 15.0718 22.9597 14.7218 23.3904 14.7218C23.8211 14.7218 24.1711 15.0718 24.1711 15.5025C24.1711 15.9332 23.8211 16.2832 23.3904 16.2832C22.9597 16.2832 22.6097 15.9332 22.6097 15.5025Z" fill="#787C88"/>
</svg>
