<svg width="64" height="64" viewBox="0 0 64 64" fill="none" xmlns="http://www.w3.org/2000/svg">
    <path d="M14.5 7.5H11.5L10.5 8.5L12.5 10.5L14.5 10V7.5Z" fill="white"/>
    <path d="M23.5 10.5L23 8L27 7V9.5L26 11L23.5 10.5Z" fill="white"/>
    <path d="M17.5 37L14.5 33H23.5L20.5 37H17.5Z" fill="white"/>
    <path d="M55 42.5H51.5L47 45.5L48 49.5L52 52L55.5 50.5L57.5 46.5L55 42.5Z" fill="white"/>
    <path d="M52 45C51.4696 45 50.9609 45.2107 50.5858 45.5858C50.2107 45.9609 50 46.4696 50 47C50 47.5304 50.2107 48.0391 50.5858 48.4142C50.9609 48.7893 51.4696 49 52 49C52.5304 49 53.0391 48.7893 53.4142 48.4142C53.7893 48.0391 54 47.5304 54 47C54 46.4696 53.7893 45.9609 53.4142 45.5858C53.0391 45.2107 52.5304 45 52 45Z" fill="#B6CAFF"/>
    <path d="M53 41.09V31C53 27.141 49.86 24 46 24H43C39.141 24 36 27.141 36 31V51C36 53.757 33.757 56 31 56H25C22.243 56 20 53.757 20 51V37.899C22 37.434 24 35.415 24 33V31.58C29 30.254 32 25.933 32 21V9C32 7.346 30.654 6 29 6H23.984C22.89 6 22 6.891 22 7.984V9C22 10.654 23.346 12 25 12C26.654 12 28 10.654 28 9V8H29C29.552 8 30 8.448 30 9V21C30 24.869 27.504 28.272 23.926 29.504C23.698 28.641 22.918 28 21.984 28H16.015C15.081 28 14.302 28.641 14.074 29.504C10.496 28.272 8 24.868 8 21V9C8 8.448 8.448 8 8.999 8L10 7.997V9C10 10.654 11.346 12 13 12C14.654 12 16 10.654 16 9V7.984C16 6.891 15.11 6 14.015 6H9C7.346 6 6 7.346 6 9V21C6 25.933 9 30.254 14 31.58V33C14 35.415 16 37.434 18 37.899V51C18 54.859 21.14 58 25 58H31C34.86 58 38 54.859 38 51V31C38 28.243 40.243 26 43 26H46C48.758 26 51 28.243 51 31V41.09C48 41.568 45.999 44.032 45.999 47C45.999 50.309 48.691 53 51.999 53C55.307 53 57.999 50.309 57.999 47C57.999 44.033 56 41.569 53 41.09ZM26 9C26 9.552 25.552 10 25 10C24.448 10 24 9.552 24 9L23.984 8H26V9ZM12 7.99L14 7.984V9C14 9.552 13.552 10 13 10C12.448 10 12 9.552 12 9V7.99ZM22 30.016V32H16.005L16.015 30L22 30.016ZM16.185 34H21.816C21.402 35.162 20.302 36 19 36C17.698 36 16.599 35.162 16.185 34ZM52 51C49.794 51 48 49.206 48 47C48 44.794 49.794 43 52 43C54.206 43 56 44.794 56 47C56 49.206 54.206 51 52 51Z" fill="#0638BE"/>
    <path d="M16 30H22V32H16V30Z" fill="#B6CAFF"/>
</svg>
