<svg width="40" height="40" viewBox="0 0 40 40" fill="none" xmlns="http://www.w3.org/2000/svg">
    <path d="M28.7256 2.48861C28.401 2.49807 28.0928 2.63349 27.8662 2.86621L11.6162 19.1162C11.3819 19.3506 11.2502 19.6685 11.2502 20C11.2502 20.3315 11.3819 20.6494 11.6162 20.8838L27.8662 37.1338C27.9814 37.2538 28.1194 37.3495 28.272 37.4155C28.4247 37.4815 28.589 37.5163 28.7553 37.518C28.9216 37.5197 29.0865 37.4882 29.2405 37.4254C29.3945 37.3625 29.5344 37.2695 29.6519 37.1519C29.7695 37.0343 29.8625 36.8945 29.9254 36.7405C29.9882 36.5865 30.0197 36.4216 30.018 36.2553C30.0163 36.089 29.9815 35.9247 29.9155 35.772C29.8495 35.6194 29.7538 35.4814 29.6338 35.3662L14.2676 20L29.6338 4.63379C29.8141 4.45816 29.9372 4.23218 29.987 3.98542C30.0368 3.73867 30.0109 3.48264 29.9128 3.25083C29.8146 3.01902 29.6488 2.82224 29.437 2.68624C29.2252 2.55024 28.9772 2.48136 28.7256 2.48861Z" fill="white"/>
</svg>
