<svg width="149" height="20" viewBox="0 0 149 20" fill="none" xmlns="http://www.w3.org/2000/svg">
    <g clip-path="url(#clip0_61_49)">
        <path d="M25.8655 14.7378C26.3548 14.5713 26.8441 14.5949 27.3334 14.7341C26.8441 14.7353 26.3548 14.7366 25.8655 14.7378Z" fill="white"/>
        <path d="M54.6556 0.101889C54.6594 0.06834 54.6631 0.0335487 54.6631 0H57.0226C57.0226 0.0335487 57.0264 0.0670974 57.0301 0.100646C56.239 0.447316 55.4467 0.444831 54.6556 0.101889Z" fill="white"/>
        <path d="M64.2217 7.70874C64.028 7.89015 63.7883 7.81187 63.5697 7.81311C58.5017 7.81808 53.4324 7.81808 48.3643 7.81311C48.1458 7.81311 47.9048 7.89263 47.7148 7.70501C47.8999 7.52608 48.1334 7.56957 48.3556 7.56957C53.3467 7.56957 58.339 7.5733 63.33 7.55963C63.6467 7.55963 63.9162 7.71246 64.2217 7.70874Z" fill="white"/>
        <path d="M85.8016 17.7373C85.5284 17.3323 85.8376 16.9421 85.8363 16.542C85.8264 11.8825 85.8252 7.22291 85.8363 2.56337C85.8363 2.16451 85.5209 1.77435 85.8065 1.37177C85.9307 1.63891 85.9618 1.91848 85.9605 2.21297C85.9568 7.08623 85.9568 11.9595 85.9605 16.834C85.9605 17.1471 85.9432 17.4528 85.8003 17.7373H85.8016Z" fill="white"/>
        <path d="M82.6298 1.49602C82.7851 1.67371 82.7242 1.88991 82.7242 2.08996C82.728 7.06262 82.728 12.0365 82.7242 17.0092C82.7242 17.2105 82.7826 17.4242 82.6398 17.6069C82.6137 17.3621 82.5665 17.1173 82.5665 16.8713C82.5615 11.9918 82.5628 7.11233 82.5665 2.23285C82.5665 1.98683 82.6087 1.74081 82.6311 1.49478L82.6298 1.49602Z" fill="white"/>
        <path d="M105.571 14.16C105.378 14.3427 105.139 14.2657 104.919 14.2657C100.099 14.2706 95.2782 14.2706 90.4585 14.2657C90.2399 14.2657 89.999 14.3439 89.8065 14.16C92.7646 14.1513 95.7228 14.1364 98.6809 14.1352C100.977 14.1352 103.273 14.1513 105.569 14.16H105.571Z" fill="white"/>
        <path d="M43.4553 17.2391C43.3088 17.0576 43.3672 16.8427 43.3672 16.6414C43.3634 11.8713 43.3634 7.10113 43.3672 2.331C43.3672 2.13219 43.3013 1.91351 43.4727 1.74203C43.4839 1.96818 43.5062 2.19432 43.5062 2.42046C43.5087 7.09243 43.5087 11.7644 43.5062 16.4376C43.5062 16.7048 43.474 16.9719 43.4566 17.2391H43.4553Z" fill="white"/>
        <path d="M148.141 12.6479C147.992 12.4925 148.041 12.2975 148.041 12.1173C148.039 8.83449 148.039 5.55169 148.041 2.26888C148.041 2.08996 147.984 1.89239 148.147 1.74329C148.144 5.37773 148.143 9.01342 148.141 12.6479Z" fill="white"/>
        <path d="M39.9967 7.59567C40.2861 7.67644 40.1271 7.91128 40.1271 8.05914C40.1395 10.8077 40.1507 13.5562 40.1234 16.3047C40.1184 16.8452 40.3183 17.3608 40.2351 17.8989C39.9743 17.5895 40.0079 17.2142 40.0066 16.8489C40.0017 13.7649 39.9992 10.6797 39.9967 7.59567Z" fill="white"/>
        <path d="M110.172 10.0286C113.078 10.3293 115.994 10.0919 118.903 10.1901C119.307 10.2038 119.693 9.91301 120.096 10.1528C119.814 10.3094 119.501 10.3243 119.194 10.3243C116.556 10.3317 113.919 10.3342 111.281 10.3293C110.891 10.3293 110.501 10.2771 110.172 10.0286Z" fill="white"/>
        <path d="M49.328 12.5124C49.5006 12.3447 49.7167 12.4105 49.9154 12.4105C52.6736 12.4068 55.4305 12.4043 58.1887 12.4155C58.4309 12.4155 58.7612 12.2701 58.8841 12.6566C58.216 12.4975 57.5367 12.5472 56.8599 12.5447C54.3489 12.5335 51.839 12.5236 49.328 12.5137V12.5124Z" fill="white"/>
        <path d="M53.4635 15.6561C53.3703 15.6362 53.2772 15.6163 53.1853 15.5964C53.1878 15.5666 53.1915 15.538 53.194 15.5082H56.9916C58.5588 15.5082 60.1273 15.5057 61.6945 15.5119C61.9144 15.5119 62.1503 15.4423 62.3527 15.5989C62.2112 15.625 62.0696 15.6735 61.9293 15.6735C59.1077 15.671 56.2862 15.6623 53.4635 15.6561Z" fill="white"/>
        <path d="M58.6334 13.7512C58.5291 13.9289 58.354 13.8954 58.1925 13.8954C55.4964 13.8966 52.8004 13.8954 50.103 13.8954C49.9602 13.8954 49.8112 13.9128 49.7019 13.7873C52.3483 13.7786 54.9935 13.7711 57.6399 13.7624C57.9702 13.7624 58.3018 13.755 58.6321 13.75L58.6334 13.7512Z" fill="white"/>
        <path d="M127.167 9.67444C127.018 9.5477 127.055 9.37251 127.055 9.21222C127.054 6.79298 127.054 4.37499 127.055 1.95576C127.055 1.79423 127.017 1.62027 127.166 1.49353C127.233 4.22092 127.23 6.9483 127.166 9.67444H127.167Z" fill="white"/>
        <path d="M144.672 5.58648C144.843 5.69582 144.809 5.87102 144.81 6.03007C144.811 8.10263 144.81 10.1764 144.81 12.249C144.81 12.3907 144.828 12.5398 144.703 12.6491C144.692 10.2945 144.682 7.93986 144.671 5.58524L144.672 5.58648Z" fill="white"/>
        <path d="M109.443 1.8663C109.565 1.97813 109.546 2.12724 109.546 2.27013C109.546 4.31163 109.546 6.35313 109.546 8.39463C109.546 8.53752 109.565 8.68663 109.445 8.80094C109.445 6.48981 109.443 4.17744 109.443 1.8663Z" fill="white"/>
        <path d="M78.4013 11.0475C78.523 11.1605 78.5043 11.3084 78.5043 11.4525C78.5043 13.248 78.5043 15.0422 78.5043 16.8377C78.5043 16.9806 78.523 17.1297 78.4 17.2415C78.4 15.1764 78.4 13.1126 78.4 11.0475H78.4013Z" fill="white"/>
        <path d="M63.3374 14.6372C63.1623 13.6071 63.1685 12.5758 63.335 11.5457C63.5113 12.5758 63.5076 13.6071 63.3374 14.6372Z" fill="white"/>
        <path d="M47.8403 9.53156C48.0142 9.36755 48.2315 9.4334 48.4315 9.43216C49.7304 9.42719 51.0307 9.42719 52.3297 9.43216C52.5284 9.43216 52.7457 9.3663 52.9195 9.5328C51.2269 9.5328 49.533 9.5328 47.8403 9.53156Z" fill="white"/>
        <path d="M58.7675 9.5328C58.9413 9.36754 59.1586 9.43339 59.3573 9.43215C60.6563 9.42718 61.9553 9.42718 63.2555 9.43215C63.4542 9.43215 63.6716 9.36754 63.8467 9.53031C62.154 9.53031 60.4614 9.53031 58.7675 9.53155V9.5328Z" fill="white"/>
        <path d="M48.3407 15.0161C48.527 15.8834 48.527 16.7507 48.3407 17.6168C48.2674 16.7495 48.2674 15.8822 48.3407 15.0161Z" fill="white"/>
        <path d="M133.781 14.5241C133.95 15.2647 133.955 16.004 133.778 16.7433C133.778 16.004 133.781 15.2634 133.781 14.5241Z" fill="white"/>
        <path d="M137.499 0.367791C136.876 0.316846 136.24 0.498258 135.626 0.265902C136.252 0.26963 136.889 0.07455 137.499 0.367791Z" fill="white"/>
        <path d="M89.8079 10.5343C90.3828 10.3516 90.9591 10.3678 91.5365 10.5268C90.9603 10.6151 90.3841 10.6722 89.8079 10.5343Z" fill="white"/>
        <path d="M40.0303 1.74081C40.2352 2.3099 40.1321 2.88893 40.0911 3.46671C40.0911 3.47044 40.0551 3.47665 40.039 3.47168C40.0203 3.46671 40.0054 3.44931 39.988 3.43813C40.0017 2.87277 40.0166 2.30741 40.0303 1.74081Z" fill="white"/>
        <path d="M42.2954 18.5164C42.5326 18.1958 42.8816 18.0368 43.2256 17.8678C43.0244 18.2393 42.74 18.4916 42.2954 18.5164Z" fill="white"/>
        <path d="M63.3474 18.2368C63.1226 17.9697 63.2791 17.6516 63.2294 17.3596C63.5796 17.6106 63.5349 17.9138 63.3474 18.2368Z" fill="white"/>
        <path d="M36.7915 14.744C37.2411 14.5788 37.6919 14.5775 38.1414 14.744C37.6919 14.744 37.2411 14.744 36.7915 14.744Z" fill="white"/>
        <path d="M78.4001 1.8663C78.5528 2.32232 78.6062 2.77709 78.369 3.2244C78.379 2.77212 78.3901 2.31859 78.4001 1.8663Z" fill="white"/>
        <path d="M97.2763 3.11258C97.2292 3.07903 97.0926 3.00821 97.1708 3.00075C97.5247 2.97093 97.8849 3.00572 98.2413 3.01939C98.245 3.01939 98.2537 3.05542 98.2487 3.07158C98.2438 3.09021 98.2276 3.10512 98.2164 3.12252C97.9022 3.12004 97.5893 3.11631 97.2751 3.11382L97.2763 3.11258Z" fill="white"/>
        <path d="M138.337 12.8989C138.17 12.4466 138.159 11.9943 138.345 11.5445C138.342 11.9955 138.34 12.4478 138.337 12.8989Z" fill="white"/>
        <path d="M76.9198 10.5641C77.3284 10.3318 77.7307 10.3094 78.1232 10.6014C77.7245 10.5057 77.3209 10.5666 76.9198 10.5641Z" fill="white"/>
        <path d="M136.001 8.03925C136.4 7.84045 136.826 7.98582 137.237 7.94109C137.251 7.95849 137.266 7.97712 137.279 7.99452C137.264 8.01192 137.251 8.02931 137.236 8.04671C136.825 8.04422 136.412 8.04174 136.001 8.03925Z" fill="white"/>
        <path d="M117.751 1.6153C117.91 2.03279 117.984 2.44656 117.704 2.84666C117.72 2.43662 117.735 2.02658 117.751 1.6153Z" fill="white"/>
        <path d="M106.183 10.0472C106.004 9.80494 106.015 9.55891 106.173 9.31165C106.32 9.55518 106.337 9.79997 106.183 10.0472Z" fill="white"/>
        <path d="M137.237 7.94111C137.606 7.73733 137.978 7.75597 138.351 7.92744C138.242 7.93614 138.132 7.94483 138.024 7.95353C137.761 8.01815 137.498 8.04424 137.237 7.94111Z" fill="white"/>
        <path d="M96.6319 1.10712C96.268 1.33574 95.898 1.28729 95.5242 1.13818C95.893 1.12824 96.2631 1.11706 96.6319 1.10712Z" fill="white"/>
        <path d="M99.857 1.13319C99.5465 1.33821 99.2075 1.22265 98.8784 1.21644C98.8685 1.21644 98.8523 1.18786 98.8511 1.17295C98.8511 1.15431 98.8623 1.13567 98.8697 1.11703C99.1988 1.12201 99.5279 1.12822 99.857 1.13319Z" fill="white"/>
        <path d="M63.5735 4.21097C63.4307 3.84318 63.422 3.47539 63.5797 3.11008C63.6741 3.47787 63.6678 3.84442 63.5735 4.21097Z" fill="white"/>
        <path d="M120.604 19.1116C120.883 18.8842 121.171 18.9451 121.46 19.0892C121.175 19.0967 120.889 19.1041 120.604 19.1116Z" fill="white"/>
        <path d="M118.245 19.0843C118.581 18.9451 118.911 18.8842 119.229 19.1302C118.901 19.1153 118.573 19.0992 118.245 19.0843Z" fill="white"/>
        <path d="M32.6797 0.766658C32.3518 0.925704 32.0252 0.931917 31.6986 0.761688C32.0252 0.762931 32.3531 0.764173 32.6797 0.766658Z" fill="white"/>
        <path d="M77.7605 3.59842C77.4674 3.80344 77.1781 3.79598 76.8937 3.58102C77.183 3.58724 77.4724 3.59221 77.7605 3.59842Z" fill="white"/>
        <path d="M55.4144 7.17321C55.7001 7.02037 55.9869 7.01665 56.2713 7.17569C55.9857 7.17569 55.7001 7.17445 55.4144 7.17321Z" fill="white"/>
        <path d="M130.415 3.72516C130.599 4.01094 130.593 4.29797 130.42 4.58624C130.361 4.29921 130.357 4.01219 130.415 3.72516Z" fill="white"/>
        <path d="M120.979 9.57879C120.969 9.32158 120.992 9.07929 121.259 8.94385C121.205 9.17248 121.254 9.44832 120.979 9.57879Z" fill="white"/>
        <path d="M82.8397 18.0144C83.1415 17.9461 83.2495 18.0815 83.2123 18.3685C83.0372 18.3039 82.9142 18.1847 82.8397 18.0144Z" fill="white"/>
        <path d="M40.2202 17.8877C40.4338 17.9821 40.6884 18.0417 40.6201 18.3698C40.4152 18.2679 40.2649 18.1213 40.2202 17.8877Z" fill="white"/>
        <path d="M122.239 8.45426C122.393 8.16475 122.63 8.35362 122.835 8.35362C122.838 8.35362 122.845 8.3909 122.84 8.40705C122.835 8.42444 122.818 8.43935 122.807 8.45551H122.24L122.239 8.45426Z" fill="white"/>
        <path d="M130.404 9.41974C130.369 9.66949 130.5 9.94161 130.301 10.169C130.259 9.9093 130.132 9.63718 130.404 9.41974Z" fill="white"/>
        <path d="M66.9662 6.20651C67.1041 6.41277 67.1935 6.61779 66.9501 6.81412C66.955 6.61158 66.96 6.40905 66.9662 6.20651Z" fill="white"/>
        <path d="M66.9227 8.69284C67.1723 8.92271 67.1289 9.16998 66.9687 9.42594C66.9538 9.18116 66.9376 8.93762 66.9227 8.69284Z" fill="white"/>
        <path d="M68.9147 1.47491C69.0339 1.84768 68.7458 1.80916 68.5359 1.85016C68.6626 1.72467 68.788 1.60041 68.9147 1.47491Z" fill="white"/>
        <path d="M42.0247 0.536794C41.056 0.258464 40.2277 0.719448 40.0302 1.74082C40.0749 2.30742 40.1619 2.87651 39.988 3.43814C39.8079 3.65434 39.8303 3.95876 39.5869 4.16875C38.6269 4.99629 37.1727 4.71796 36.6586 3.57233C36.517 3.25548 36.4201 2.91999 36.281 2.6019C35.9184 1.77313 35.3534 1.11458 34.4555 0.900859C33.8855 0.765422 33.2807 0.694597 32.6796 0.767907C32.3518 0.832519 32.0252 0.838732 31.6986 0.762937C31.1509 0.745541 30.6231 0.86731 30.0879 0.943106C29.4483 1.03381 28.9416 1.20777 28.5306 1.6849C28.1617 2.11234 27.9121 2.61184 27.7445 3.13868C26.6479 6.58177 25.827 10.0944 25.1341 13.6382C25.0248 14.1948 25.2906 14.5912 25.8655 14.7378C26.3548 14.6782 26.8441 14.6832 27.3334 14.7341C28.0947 14.6546 28.6784 14.3551 28.8336 13.5264C29.2769 11.1692 29.7712 8.82084 30.3387 6.49107C30.5809 5.49455 30.7622 4.47318 31.2142 3.5363C31.4042 3.14117 31.6986 2.85911 32.1717 2.86905C32.62 2.87775 32.8659 3.17099 33.0584 3.53878C33.3565 4.10787 33.5129 4.72417 33.6769 5.33799C34.15 7.10613 34.3735 8.92397 34.7771 10.7058C34.8318 10.671 34.8591 10.625 34.8293 10.5592C34.874 10.589 34.8591 10.6374 34.8579 10.6772C34.8541 10.799 34.8852 10.9257 34.8144 11.0388C34.7858 11.1866 34.8218 11.3196 34.9075 11.4401C34.9572 11.4041 34.9734 11.3594 34.9758 11.3184C34.9883 11.4625 35.0106 11.624 34.9411 11.7831C35.0168 12.2428 35.1025 12.7001 35.1658 13.161C35.3186 14.2831 35.644 14.6049 36.7902 14.7453C37.2398 14.677 37.6906 14.6757 38.1401 14.7453C38.8269 14.4719 39.0069 14.1688 38.8691 13.4791C38.7399 12.8343 38.5921 12.1931 38.4593 11.5495C38.191 10.2609 37.9166 8.97243 37.6694 7.68018C37.6148 7.39688 37.4919 7.044 37.8806 6.86135C38.5648 6.53953 39.6291 6.91353 39.9955 7.59693C40.1643 7.77213 40.07 7.98833 40.07 8.18093C40.0774 10.9096 40.0799 13.6382 40.07 16.3656C40.0687 16.885 40.0998 17.3969 40.2326 17.8989L40.2177 17.8877C40.3854 18.0194 40.5332 18.1685 40.6176 18.3698C40.8002 18.5313 41.0088 18.6171 41.2559 18.5947C41.5018 18.5239 41.7465 18.5177 41.9911 18.5997C42.1066 18.6282 42.2147 18.6295 42.2917 18.5177C42.6096 18.3126 42.9523 18.1449 43.2218 17.8703C43.3969 17.6963 43.4118 17.464 43.4516 17.2403C43.4118 17.1198 43.4217 16.9943 43.4217 16.8713C43.4217 11.9707 43.4217 7.07009 43.4217 2.17074C43.4217 2.02785 43.3994 1.87998 43.4689 1.74455C43.4925 1.49977 43.3671 1.32208 43.2255 1.13819C42.9163 0.736843 42.4755 0.669746 42.0222 0.539279L42.0247 0.536794Z" fill="white"/>
        <path d="M64.2218 7.70876C63.956 7.8268 63.6952 7.68764 63.4294 7.68888C58.1913 7.70131 52.9531 7.67894 47.7149 7.70503C47.1697 7.70628 46.8009 7.97467 46.7202 8.50399C46.637 9.05071 47.0195 9.30792 47.4889 9.44957C47.6044 9.48436 47.7236 9.50548 47.8403 9.53282C49.533 9.46448 51.2269 9.46199 52.9196 9.53406C53.1617 9.57258 53.4026 9.61483 53.646 9.64713C53.9267 9.68565 54.1788 9.877 54.108 10.1106C54.0211 10.4001 53.7454 10.6996 53.3915 10.6486C52.1459 10.4672 50.899 10.5964 49.6535 10.5815C49.3057 10.5778 48.9357 10.7306 48.6115 10.8872C48.2986 11.0375 48.2166 11.3979 48.311 11.6936C48.4613 12.1583 48.8189 12.4516 49.3281 12.5149C49.4051 12.4801 49.4858 12.4702 49.569 12.4702C52.4414 12.4702 55.3126 12.4702 58.1851 12.4702C58.4334 12.4702 58.6806 12.4851 58.8842 12.6578C59.4592 13.1561 59.4095 13.376 58.6321 13.7525C58.4545 13.914 58.2372 13.8333 58.041 13.8333C55.6094 13.8395 53.1766 13.8407 50.7451 13.8333C50.3973 13.8333 50.0459 13.8904 49.7019 13.7885C48.8289 13.873 48.4439 14.2197 48.3396 15.0162C48.4302 15.8835 48.4302 16.7508 48.3396 17.6168C48.3917 18.4158 49.2325 18.8407 49.9937 18.8407C54.0484 18.8432 58.1019 18.8457 62.1565 18.8357C62.6347 18.8357 63.0954 18.7239 63.3475 18.2368C63.3102 17.9448 63.4332 17.6305 63.2295 17.3596C62.9948 17.0676 62.7265 16.8651 62.3167 16.8663C59.3499 16.8812 56.3844 16.885 53.4175 16.8912C53.2102 16.9558 53.004 16.9831 52.8016 16.8738C52.5507 16.711 52.2812 16.5159 52.3446 16.1953C52.4129 15.8536 52.7544 15.794 53.0586 15.7418C53.194 15.7182 53.3269 15.6834 53.4623 15.6548C53.4697 15.6076 53.4871 15.5629 53.5169 15.5641C56.4613 15.5964 59.407 15.5256 62.3515 15.5989C62.8358 15.4374 63.2109 15.1628 63.3363 14.6359C63.3475 13.6059 63.3711 12.5746 63.3338 11.5445C63.2258 11.0686 62.8756 10.7766 62.4496 10.7033C61.0985 10.4734 59.7312 10.502 58.3726 10.6362C57.969 10.676 57.7939 10.4088 57.6858 10.1852C57.543 9.88819 57.8137 9.70305 58.0994 9.63595C58.3167 9.585 58.5427 9.56512 58.765 9.53158C60.4577 9.45951 62.1503 9.46199 63.8442 9.53033C64.4155 9.4359 64.9805 9.26319 65.0377 8.5947C65.0799 8.09395 64.6688 7.8442 64.2193 7.70876H64.2218Z" fill="white"/>
        <path d="M148.579 17.0229C148.19 16.4774 147.594 16.5383 147.08 16.5296C144.209 16.4861 141.338 16.506 138.465 16.4873C137.623 16.4824 137.237 15.9903 137.39 15.1677C137.446 14.8646 137.6 14.5974 137.756 14.329C138.017 13.8829 138.421 13.4853 138.336 12.8976C138.267 12.4453 138.252 11.9943 138.344 11.5432C138.576 10.9816 138.999 10.794 139.599 10.7828C140.639 10.7629 141.687 10.9307 142.719 10.6784C142.694 10.625 142.621 10.6424 142.593 10.5914C142.633 10.5902 142.669 10.6113 142.712 10.6076C142.788 10.6001 142.865 10.6076 142.938 10.6349C143.331 10.4336 143.723 10.1988 143.654 9.68812C143.583 9.16252 143.171 8.95999 142.689 8.88171C142.547 8.8581 142.406 8.81212 142.264 8.81212C138.73 8.8084 135.194 8.80094 131.66 8.81958C131.179 8.82206 130.659 8.87674 130.406 9.41724C130.268 9.65208 130.423 9.92793 130.302 10.1665C130.601 10.7256 131.144 10.7691 131.676 10.789C132.355 10.8139 133.036 10.8089 133.716 10.789C134.296 10.7729 134.783 10.8822 135 11.5035C135.182 12.0216 135.028 12.7187 134.521 13.0206C133.914 13.3834 133.819 13.9202 133.781 14.5216C133.849 15.2609 133.857 16.0015 133.778 16.7408C133.927 17.8578 134.632 18.4754 135.826 18.4779C139.628 18.4866 143.429 18.4828 147.23 18.4791C147.626 18.4791 148.01 18.3971 148.355 18.1933C148.877 17.8852 148.924 17.5037 148.579 17.0191V17.0229Z" fill="white"/>
        <path d="M89.8078 10.5343C90.384 10.461 90.9603 10.4523 91.5365 10.5268C91.9115 10.4833 92.2058 10.3255 92.4927 10.0547C93.1956 9.38867 93.3831 8.44185 93.8625 7.65407C94.5157 6.58176 95.0485 5.4324 95.6992 4.35139C96.073 3.72887 96.5611 3.28529 97.2776 3.11506C97.2751 3.09518 97.2714 3.05666 97.2702 3.0579C97.1882 3.06287 97.2391 3.03429 97.3198 3.04299C97.6191 3.07902 97.9333 2.94607 98.2177 3.125C98.9715 3.36729 99.4558 3.91401 99.847 4.56386C100.803 6.15184 101.614 7.8156 102.459 9.46322C102.968 10.4573 104.848 11.0065 105.825 10.4473C105.986 10.3554 106.126 10.2386 106.183 10.0509C106.172 9.80616 106.19 9.56014 106.173 9.31536C105.012 6.9073 103.66 4.60984 102.204 2.36829C101.64 1.49975 100.859 1.12823 99.857 1.13568C99.5266 1.20402 99.1963 1.2326 98.8697 1.11953C98.1246 0.96794 97.3782 0.979123 96.6319 1.11083C96.2655 1.25 95.8942 1.18911 95.5241 1.1419C94.969 1.08971 94.5257 1.44756 94.0128 1.55069C93.9246 1.69607 93.829 1.82902 93.6327 1.82405C92.9696 2.40929 92.6293 3.2157 92.186 3.95005C91.1689 5.63742 90.1841 7.34592 89.3309 9.124C88.9745 9.86829 89.1235 10.2684 89.8066 10.538L89.8078 10.5343Z" fill="white"/>
        <path d="M85.8078 1.37176C85.5172 0.56659 84.828 0.462217 84.1201 0.465944C83.411 0.469672 82.8385 0.736819 82.6311 1.49601C82.6994 1.71843 82.6659 1.9483 82.6659 2.1732C82.6684 6.84393 82.6684 11.5134 82.6659 16.1841C82.6659 16.6588 82.6994 17.1334 82.641 17.6081C82.692 17.751 82.682 17.9249 82.8422 18.0144C83.036 18.0591 83.1465 18.1921 83.2148 18.3685C83.4333 18.5574 83.6879 18.6307 83.9736 18.6021C84.1772 18.5151 84.3821 18.5201 84.587 18.5984C85.1918 18.5922 85.5594 18.2505 85.8041 17.7373C85.7556 17.3235 85.9034 16.9272 85.8984 16.5134C85.8413 11.4662 85.9965 6.41773 85.8103 1.37176H85.8078Z" fill="white"/>
        <path d="M105.571 14.1601C105.414 14.2383 105.247 14.2073 105.084 14.2073C100.154 14.2085 95.2249 14.2085 90.2947 14.2073C90.132 14.2073 89.9643 14.2383 89.8078 14.1601C89.5458 14.0283 89.4353 14.3638 89.2167 14.3539C88.8057 14.3353 88.6529 14.6422 88.5647 14.9404C88.4617 15.2883 88.6268 15.5828 88.9323 15.7841C89.3061 16.0288 89.7222 16.122 90.163 16.122C95.241 16.122 100.319 16.122 105.397 16.1233C105.824 16.1233 106.217 16.0139 106.548 15.7542C106.907 15.4734 106.993 15.0708 106.716 14.7229C106.443 14.3812 106.084 14.0805 105.572 14.1601H105.571Z" fill="white"/>
        <path d="M72.2913 0.392639C72.0467 0.55417 71.802 0.55417 71.5574 0.392639C71.802 0.392639 72.0467 0.392639 72.2913 0.392639Z" fill="white"/>
        <path d="M41.2584 18.5947C41.5043 18.4307 41.7502 18.4245 41.9936 18.5997C41.749 18.5984 41.5031 18.5972 41.2584 18.5947Z" fill="white"/>
        <path d="M123.701 8.93762C123.935 9.1327 123.845 9.34021 123.723 9.54771C123.716 9.34393 123.708 9.14016 123.701 8.93762Z" fill="white"/>
        <path d="M113.463 3.46049C113.17 3.47789 113.022 3.34742 113.039 3.04672C113.181 3.18464 113.322 3.32257 113.463 3.46049Z" fill="white"/>
        <path d="M53.5529 7.05018C53.7627 6.89735 53.9664 6.8899 54.1663 7.06882C53.9614 7.06261 53.7578 7.0564 53.5529 7.05018Z" fill="white"/>
        <path d="M127.293 15.2584C127.122 15.0547 127.122 14.8496 127.293 14.6446C127.293 14.8496 127.293 15.0534 127.293 15.2584Z" fill="white"/>
        <path d="M34.7783 10.7045C34.8007 10.6536 34.8243 10.6014 34.8466 10.5504C34.8702 10.5877 34.9137 10.6225 34.9149 10.661C34.9224 10.7952 34.9423 10.9381 34.8144 11.0375C34.8019 10.9269 34.7895 10.8151 34.7771 10.7045H34.7783Z" fill="white"/>
        <path d="M94.0127 1.54697C93.9283 1.69731 93.9593 2.00671 93.6327 1.82033C93.7184 1.67246 93.86 1.60164 94.0127 1.54697Z" fill="white"/>
        <path d="M57.5219 7.06884C57.7205 6.88991 57.9242 6.89861 58.1328 7.0502C57.9292 7.05641 57.7255 7.06262 57.5219 7.06884Z" fill="white"/>
        <path d="M123.574 11.1655C123.408 11.4202 123.245 11.3022 123.082 11.1618C123.246 11.1618 123.41 11.1643 123.574 11.1655Z" fill="white"/>
        <path d="M53.4187 16.8924C53.2088 17.0465 53.0027 17.0626 52.8027 16.875C53.0101 16.8079 53.2138 16.8626 53.4187 16.8924Z" fill="white"/>
        <path d="M147.538 0.761677C147.341 0.900842 147.215 0.869778 147.186 0.612571C147.335 0.58772 147.436 0.675941 147.538 0.761677Z" fill="white"/>
        <path d="M145.54 0.612573C145.504 0.857354 145.39 0.914511 145.188 0.760436C145.291 0.675943 145.392 0.587722 145.54 0.612573Z" fill="white"/>
        <path d="M34.9088 11.4389C34.92 11.4016 34.9212 11.3593 34.9423 11.3295C34.9858 11.2674 35.0342 11.2823 35.0367 11.3531C35.0442 11.5035 35.0827 11.6638 34.9411 11.7818C34.9299 11.6675 34.92 11.5532 34.9088 11.4389Z" fill="white"/>
        <path d="M57.6373 0.144135C57.4312 0.30815 57.2263 0.294482 57.0214 0.144135C57.2263 0.144135 57.4324 0.144135 57.6373 0.144135Z" fill="white"/>
        <path d="M121.46 10.8201C121.291 10.9145 121.12 11.0499 120.97 10.7952L121.46 10.8201Z" fill="white"/>
        <path d="M118.609 10.7865C118.415 10.9878 118.209 10.9667 117.998 10.8176L118.609 10.7865Z" fill="white"/>
        <path d="M54.6668 0.14539C54.4606 0.288283 54.2545 0.314376 54.0496 0.141663C54.2557 0.141663 54.4606 0.144148 54.6668 0.14539Z" fill="white"/>
        <path d="M142.719 10.6797C142.623 10.6648 142.527 10.6499 142.373 10.625C142.611 10.5157 142.778 10.5119 142.938 10.6362C142.865 10.6511 142.792 10.6648 142.719 10.6797Z" fill="white"/>
        <path d="M79.6257 18.5996C79.8306 18.4344 80.0355 18.4307 80.2392 18.6009C80.0343 18.6009 79.8306 18.6009 79.6257 18.5996Z" fill="white"/>
        <path d="M83.9711 18.6021C84.1747 18.4307 84.3784 18.4344 84.5845 18.5984C84.3796 18.5984 84.176 18.6009 83.9711 18.6021Z" fill="white"/>
        <path d="M127.292 14.6446C127.27 13.7599 126.846 13.0554 126.265 12.4354C125.631 11.7569 125.621 11.7669 126.311 11.0996C126.723 10.7008 127.139 10.3044 127.167 9.67444C127.069 9.45824 127.117 9.22837 127.117 9.00595C127.113 6.82777 127.111 4.64959 127.117 2.47141C127.117 2.14586 127.057 1.81535 127.166 1.49353C127.133 1.39909 127.115 1.29472 127.065 1.21023C126.67 0.545465 125.98 0.498249 125.334 0.470913C124.33 0.428666 123.822 0.897105 123.707 1.88741C123.677 2.14214 123.544 2.29248 123.346 2.32603C122.925 2.39686 122.513 2.52857 122.061 2.40183C121.659 2.28876 121.26 2.18438 121.236 1.71097C121.201 1.03751 120.745 0.82131 120.23 0.615048C119.897 0.480853 119.567 0.576529 119.236 0.556648C118.526 0.513159 117.957 0.895863 117.75 1.61778C117.809 2.03155 117.901 2.44532 117.703 2.84914C117.521 3.22439 117.27 3.54994 116.823 3.56236C115.702 3.59343 114.574 3.73259 113.46 3.46296C113.229 3.41699 113.093 3.27409 113.037 3.04919C113.008 2.78453 112.959 2.51987 112.954 2.25396C112.934 1.16052 112.724 0.88468 111.74 0.541738C111.488 0.453517 111.332 0.651082 111.098 0.613805C110.263 0.482095 109.608 0.996509 109.442 1.86878C109.516 4.17991 109.51 6.49228 109.444 8.80342C109.466 9.34268 109.67 9.77384 110.171 10.0298C110.539 10.0646 110.877 10.2448 111.258 10.2386C114.203 10.1876 117.15 10.3355 120.094 10.1541C120.44 10.041 120.772 9.90928 120.979 9.58001C121.118 9.38865 121.063 9.11157 121.259 8.94507C121.519 8.64686 121.903 8.5984 122.239 8.4555C122.428 8.32752 122.617 8.32379 122.805 8.4555C123.108 8.60834 123.473 8.64313 123.699 8.93761C123.827 9.13642 123.77 9.34268 123.722 9.5477C123.695 9.78751 123.816 9.98135 123.927 10.1727C124.202 10.6486 124.065 10.9679 123.573 11.1655C123.408 11.2748 123.244 11.2587 123.081 11.1618C122.541 11.0487 121.999 10.9344 121.459 10.8213C121.293 10.8623 121.126 10.9108 120.969 10.7965C120.183 10.615 119.396 10.6411 118.609 10.7865C118.412 10.9145 118.204 10.8685 117.998 10.8176C117.726 10.7604 117.499 10.9543 117.254 10.9679C116.006 11.0412 114.891 11.491 113.91 12.2167C111.801 13.7773 111.909 16.3693 114.11 17.8081C115.365 18.6295 116.771 18.9699 118.246 19.0842C118.577 19.042 118.908 18.9674 119.23 19.1302C119.69 19.2259 120.149 19.2532 120.605 19.1103C120.887 18.9749 121.175 19.0432 121.462 19.088C122.937 18.9786 124.374 18.6829 125.596 17.8206C126.465 17.2067 127.286 16.4799 127.295 15.2584C127.209 15.0547 127.209 14.8496 127.295 14.6446H127.292ZM117.709 7.68513C117.531 8.11877 117.161 8.30391 116.748 8.43562C115.838 8.54124 114.929 8.52384 114.019 8.44556C113.833 8.30764 113.613 8.33125 113.402 8.31261C113.243 8.207 113.084 8.10014 113.037 7.89636C113.029 7.83547 113.022 7.77335 113.013 7.71246C112.788 6.10709 113.047 5.45352 114.788 5.53677C115.344 5.56286 115.904 5.54919 116.462 5.55043C117.052 5.55168 117.498 5.77906 117.73 6.34691C117.837 6.79422 117.866 7.2403 117.71 7.68388L117.709 7.68513ZM123.722 5.95178C123.526 6.40655 123.046 6.38294 122.686 6.56187C122.536 6.67245 122.384 6.6737 122.234 6.56187C121.868 6.39909 121.402 6.40282 121.208 5.95178C121.131 5.62126 121.118 5.29199 121.218 4.96271C121.879 4.23582 123.035 4.23831 123.717 4.96644C123.829 5.29447 123.883 5.6225 123.723 5.95302L123.722 5.95178ZM123.347 15.881C122.453 17.1533 121.147 17.4689 119.701 17.4192C119.042 17.3969 118.394 17.3037 117.781 17.0241C116.974 16.6563 116.391 16.1009 116.145 15.2323C116.024 15.0472 116.015 14.8621 116.15 14.6782C116.385 13.5711 117.167 12.9995 118.173 12.7063C119.685 12.2664 121.15 12.3198 122.551 13.1647C123.11 13.5015 123.312 14.0233 123.56 14.5489C123.713 15.0286 123.695 15.4821 123.347 15.881Z" fill="white"/>
        <path d="M116.605 5.42869H114.029C114.029 5.40881 114.029 5.38893 114.029 5.36905H116.586C116.592 5.38893 116.598 5.40881 116.605 5.42869Z" fill="white"/>
        <path d="M114.02 8.44683C114.929 8.4431 115.84 8.44062 116.749 8.43689C115.84 8.65061 114.931 8.63197 114.02 8.44683Z" fill="white"/>
        <path d="M123.347 15.881C123.516 15.4523 123.631 15.0149 123.56 14.549C123.847 14.9664 123.753 15.5554 123.347 15.881Z" fill="white"/>
        <path d="M123.722 5.95304C123.719 5.62377 123.718 5.29574 123.716 4.96646C123.967 5.29325 124.126 5.62128 123.722 5.95304Z" fill="white"/>
        <path d="M117.71 7.68515C117.716 7.23908 117.724 6.79301 117.73 6.34818C117.961 6.79798 117.961 7.24281 117.71 7.68515Z" fill="white"/>
        <path d="M121.218 4.96274C121.215 5.29201 121.212 5.62253 121.208 5.9518C121.03 5.62004 121.023 5.29077 121.218 4.96274Z" fill="white"/>
        <path d="M116.15 14.6782C116.149 14.8633 116.146 15.0472 116.145 15.2324C115.851 15.077 116.043 14.8422 116.05 14.6372C116.05 14.6372 116.088 14.6322 116.104 14.6397C116.122 14.6471 116.135 14.6658 116.15 14.6782Z" fill="white"/>
        <path d="M122.235 6.56189C122.386 6.56189 122.537 6.56189 122.687 6.56189C122.536 6.78058 122.386 6.77685 122.235 6.56189Z" fill="white"/>
        <path d="M113.037 7.89761C113.159 8.03678 113.28 8.1747 113.402 8.31387C113.14 8.29896 113.019 8.15855 113.037 7.89761Z" fill="white"/>
        <path d="M38.5735 4.77511C38.3835 4.85587 38.2581 4.86706 38.1289 4.77884C38.2568 4.68564 38.3835 4.7018 38.5735 4.77511Z" fill="white"/>
        <path d="M81.7196 2.14959C81.6873 1.16301 81.1123 0.47091 80.253 0.479608C79.2992 0.488305 78.5938 0.700781 78.4001 1.86629C78.4535 2.31982 78.5106 2.77459 78.3691 3.22439C78.1666 3.34989 77.963 3.47414 77.7606 3.59964C77.47 3.6978 77.1794 3.70774 76.8937 3.58224C76.4293 3.37598 76.0282 3.14238 75.7761 2.63542C75.0682 1.21644 73.8313 0.55416 72.2914 0.393872C72.0467 0.462212 71.8021 0.463455 71.5575 0.393872C71.2532 0.320562 71.0235 0.580254 70.7614 0.595164C70.0138 0.637411 69.4376 0.987808 68.916 1.47613C68.8825 1.69482 68.7123 1.77558 68.5372 1.85138C67.4208 3.09019 67.0967 4.61355 66.9663 6.20774C67.0333 6.41152 67.0855 6.61654 66.9501 6.81534C66.7701 7.4391 66.8173 8.06534 66.9216 8.69407C67.1017 8.92767 67.0284 9.17742 66.9675 9.42717C66.9638 10.1541 67.1401 10.8536 67.35 11.5358C68.2851 14.5875 70.8868 15.6598 73.3917 14.8857C75.1415 14.3439 75.9686 12.9461 76.4094 11.2773C76.4939 10.958 76.6143 10.7082 76.9186 10.5666C77.3234 10.4548 77.727 10.3964 78.1219 10.6039C78.2474 10.7318 78.3927 10.8486 78.4001 11.0499C78.4721 13.115 78.4734 15.1789 78.4001 17.244C78.5914 18.2194 78.8199 18.4729 79.6258 18.6021C79.8307 18.5226 80.0344 18.5189 80.2393 18.6034C81.0478 18.5226 81.4973 18.1399 81.6302 17.3807C81.6873 17.0589 81.7209 16.7284 81.7209 16.4003C81.7271 12.4975 81.7246 8.59342 81.7246 4.69059C81.7246 3.84442 81.7469 2.997 81.7196 2.15083V2.14959ZM73.2526 11.5619C73.1222 12.2477 72.8602 12.9138 72.1709 13.2791C71.9611 13.3362 71.7475 13.4307 71.5599 13.2256C70.9291 12.9796 70.7267 12.4006 70.5727 11.839C70.3913 11.1742 70.3069 10.4821 70.1802 9.80242C70.0709 9.60237 70.1467 9.38617 70.1231 9.1799C70.1405 8.93512 70.0834 8.68537 70.1628 8.44432C70.1628 7.98582 70.1628 7.52732 70.1616 7.06882C70.0846 6.82777 70.1392 6.5805 70.1231 6.33696C70.143 6.12946 70.0759 5.9145 70.174 5.71321C70.2957 5.02732 70.4013 4.33895 70.5441 3.65804C70.672 3.04795 71.0098 2.56584 71.5488 2.23532C71.7984 2.15207 72.0468 2.11107 72.2877 2.26017C72.5509 2.45774 72.7658 2.70004 72.9397 2.97961C73.1408 3.18463 73.2762 3.41201 73.198 3.71519C73.7642 6.32702 73.7493 8.94631 73.2514 11.5619H73.2526ZM78.3119 8.3064C78.2076 8.37971 78.1046 8.45302 78.0002 8.52757C77.7606 8.69531 77.5134 8.6481 77.2651 8.5549C77.0626 8.43189 76.9062 8.26663 76.7907 8.06162C76.6317 7.6553 76.7025 7.24278 76.7534 6.83025C76.7596 6.72837 76.7696 6.62523 76.772 6.52335C76.782 6.16301 76.6888 5.7393 77.2017 5.63865C77.6811 5.54546 78.1542 5.52807 78.4014 6.08597C78.4113 6.82777 78.5802 7.57578 78.3132 8.3064H78.3119Z" fill="white"/>
        <path d="M78.3119 8.30517C78.4721 7.56959 78.3193 6.82282 78.4001 6.08475C78.5131 6.83027 78.682 7.57829 78.3119 8.30517Z" fill="white"/>
        <path d="M76.7534 6.82779C76.7658 7.23783 76.7782 7.64911 76.7906 8.05915C76.5398 7.65532 76.5969 7.2428 76.7534 6.82779Z" fill="white"/>
        <path d="M73.2003 3.7152C73.1146 3.47042 73.0277 3.2244 72.942 2.97961C73.286 3.13369 73.3717 3.37971 73.2003 3.7152Z" fill="white"/>
        <path d="M70.1652 6.32703C70.1652 6.57429 70.1652 6.82032 70.164 7.06758C69.974 6.84144 70.0957 6.57305 70.0647 6.32578C70.0994 6.27111 70.133 6.2736 70.1665 6.32578L70.1652 6.32703Z" fill="white"/>
        <path d="M70.1652 8.44183C70.1652 8.6891 70.1652 8.93637 70.1652 9.18363C70.1329 9.23706 70.1007 9.2383 70.0659 9.18487C70.0957 8.93637 69.9727 8.66798 70.1665 8.44183H70.1652Z" fill="white"/>
        <path d="M77.265 8.55367C77.5097 8.54497 77.7556 8.53503 78.0002 8.52634C77.7642 8.77609 77.5171 8.74627 77.265 8.55367Z" fill="white"/>
        <path d="M72.2901 2.25893L71.5511 2.23408C71.8045 2.05391 72.0516 2.02161 72.2901 2.25893Z" fill="white"/>
        <path d="M70.0646 9.18614C70.0982 9.1849 70.1305 9.18366 70.164 9.1849C70.1702 9.39116 70.1752 9.59618 70.1814 9.80245C69.9839 9.62725 70.0845 9.39613 70.0646 9.18739V9.18614Z" fill="white"/>
        <path d="M71.5612 13.2244C71.7648 13.2418 71.9685 13.2604 72.1722 13.2778C71.9523 13.4443 71.7425 13.4978 71.5612 13.2244Z" fill="white"/>
        <path d="M70.1652 6.32704H70.1143H70.0634C70.0857 6.11954 69.9839 5.88967 70.1764 5.71323C70.1727 5.91825 70.169 6.12327 70.1652 6.32829V6.32704Z" fill="white"/>
        <path d="M148.126 1.8017C148.126 1.7197 148.136 1.82531 148.146 1.7433C148.137 1.29599 147.934 0.969198 147.538 0.760451C147.387 0.791515 147.264 0.752996 147.186 0.611346C146.637 0.416266 146.089 0.418751 145.54 0.611346C145.461 0.751753 145.34 0.792757 145.187 0.759208C144.846 0.899616 144.688 1.14937 144.682 1.52213C144.672 2.04897 144.35 2.31984 143.877 2.48635C143.282 2.69509 142.74 2.51865 142.337 2.14465C141.351 1.22765 140.185 0.685898 138.9 0.451057C138.464 0.371534 137.982 0.0111965 137.5 0.367807C136.883 0.213731 136.246 0.406326 135.628 0.265918C134.038 0.354139 132.565 0.771634 131.353 1.85389C130.804 2.3447 130.448 2.961 130.417 3.72516C130.509 4.01219 130.499 4.29922 130.422 4.58625C130.43 5.10066 130.627 5.54798 130.943 5.93689C132.25 7.54226 134.057 7.961 136.003 8.03928C136.396 7.94857 136.799 8.03928 137.195 7.98709C137.208 7.98709 137.223 7.98461 137.237 7.98336C137.237 8.00449 137.237 8.02561 137.237 8.04673C137.505 8.0604 137.774 8.07283 138.026 7.95354C137.862 7.95106 137.698 7.94857 137.533 7.94609C137.805 7.90384 138.075 7.85787 138.352 7.92745C139.655 7.71994 140.833 7.26766 141.735 6.24753C142.007 5.94062 142.301 5.65111 142.604 5.37402C143.423 4.62352 144.077 4.69435 144.675 5.58649C144.855 6.35563 144.744 7.13471 144.744 7.90757C144.744 9.48808 144.81 11.0698 144.706 12.6504C144.716 13.1697 144.866 13.6432 145.33 13.9128C146.221 14.4309 148.008 14.2222 148.142 12.6479C148.065 9.03207 148.093 5.41751 148.128 1.8017H148.126ZM138.301 5.94683C137.878 6.15185 137.436 6.23386 136.985 6.3109C136.78 6.43018 136.575 6.42894 136.371 6.3109C136.054 6.10215 135.671 6.22144 135.32 6.07606C134.546 5.75424 133.983 5.28083 133.747 4.46075C133.673 4.25821 133.678 4.05444 133.744 3.85066C134.096 2.58451 135.121 2.21299 136.246 1.97566C136.533 1.89241 136.82 1.89862 137.108 1.97193C137.821 2.14092 138.568 2.28257 139.087 2.84047C140.075 3.90036 139.702 5.26592 138.301 5.94559V5.94683Z" fill="white"/>
        <path d="M137.108 1.97317L136.246 1.9769C136.533 1.79176 136.82 1.79797 137.108 1.97317Z" fill="white"/>
        <path d="M136.371 6.31213C136.576 6.31213 136.781 6.31213 136.985 6.31213C136.78 6.5184 136.576 6.51964 136.371 6.31213Z" fill="white"/>
        <path d="M133.744 3.8519C133.744 4.05568 133.746 4.25821 133.747 4.46199C133.577 4.25945 133.586 4.05568 133.744 3.8519Z" fill="white"/>
        <path d="M63.5784 3.1101C63.3362 2.16204 62.652 1.61283 61.8224 1.22143C61.1543 0.905825 60.4973 0.611341 59.7249 0.511938C59.0332 0.423717 58.344 0.213727 57.6361 0.144145C57.4312 0.213727 57.225 0.213727 57.0201 0.144145L57.0301 0.101898C56.239 0.101898 55.4467 0.101898 54.6556 0.103141L54.6668 0.14663C54.4606 0.211242 54.2545 0.218697 54.0496 0.142902C53.2759 0.247276 52.5159 0.447326 51.7534 0.577793C50.6519 0.765417 49.7031 1.17421 48.8698 1.87874C48.2687 2.38818 48.0129 3.05046 48.0638 3.85438C48.1234 4.78753 48.7332 5.34544 49.4137 5.794C50.6568 6.61407 52.0912 6.89986 53.5528 7.05021C53.759 6.99554 53.9651 6.96323 54.1663 7.06885C54.5749 7.19683 54.9959 7.17198 55.4156 7.17322C55.7013 7.11109 55.9869 7.10612 56.2725 7.1757C56.6923 7.17446 57.1133 7.1931 57.5218 7.06885C57.723 6.96447 57.9279 6.99429 58.1328 7.05021C59.2816 6.95453 60.3905 6.6936 61.4499 6.24131C62.4098 5.83251 63.2232 5.26094 63.5734 4.21099C63.5238 3.8432 63.5126 3.47665 63.5796 3.1101H63.5784ZM59.7398 3.94509C59.3126 4.84966 58.4371 5.00498 57.5976 5.20751C57.2846 5.28331 56.9556 5.29325 56.665 5.45478C56.47 5.32307 56.2328 5.45851 56.0341 5.35538L55.7745 5.36407C55.5299 5.41005 55.284 5.42372 55.0406 5.35538C53.841 5.2771 52.6898 5.09196 51.9645 3.96373C51.8068 3.76492 51.8378 3.5599 51.9496 3.35488C52.4637 2.31736 53.4572 2.1521 54.4482 1.98808C54.7661 1.93589 55.089 1.90856 55.4094 1.87004C55.6541 1.75448 55.9012 1.77933 56.1496 1.85264C56.8835 2.01293 57.6498 1.96944 58.3688 2.24032C58.9636 2.46398 59.4629 2.77834 59.7423 3.37228C59.8541 3.56363 59.859 3.75622 59.7386 3.94633L59.7398 3.94509Z" fill="white"/>
        <path d="M59.7399 3.94509C59.7399 3.75374 59.7424 3.56238 59.7436 3.37103C60.0193 3.53256 59.8405 3.7674 59.8405 3.97367C59.8405 3.97615 59.8044 3.98485 59.7883 3.97988C59.7709 3.97491 59.756 3.95751 59.7411 3.94509H59.7399Z" fill="white"/>
        <path d="M56.1508 1.8514C55.9037 1.85761 55.6578 1.86382 55.4106 1.86879C55.6528 1.66626 55.8999 1.67744 56.1508 1.8514Z" fill="white"/>
        <path d="M55.0406 5.35413C55.2853 5.35661 55.5299 5.36034 55.7746 5.36282C55.5287 5.50944 55.2828 5.52063 55.0406 5.35413Z" fill="white"/>
        <path d="M56.0341 5.35538C56.2477 5.36905 56.4849 5.23112 56.6649 5.45478C56.4526 5.4349 56.2216 5.5343 56.0341 5.35538Z" fill="white"/>
        <path d="M51.9509 3.35364L51.9658 3.96248C51.7286 3.76492 51.7448 3.56114 51.9509 3.35364Z" fill="white"/>
        <path opacity="0.3" d="M20.0908 6.63643C19.6338 6.25373 18.952 6.09468 18.7483 5.42868C18.5484 5.74926 18.608 6.18788 18.2826 6.45129C18.2851 6.57555 18.2876 6.70105 18.2901 6.8253C18.4143 7.39439 18.1299 7.78082 17.7499 8.12376C17.73 8.14613 17.7064 8.16725 17.6791 8.18713C17.5102 8.48534 17.3426 8.78231 17.1737 9.08052C16.9576 9.626 16.631 10.1093 16.3106 10.5952C16.241 10.8313 16.1106 11.0301 15.938 11.204C15.6089 11.8079 15.2376 12.382 14.7806 12.8976C14.5111 13.3139 14.2317 13.7214 13.8306 14.0271C13.3947 14.7005 12.8768 15.2982 12.2248 15.7729C12.1292 15.9332 11.9926 16.0475 11.8274 16.1307C11.4611 16.4948 11.0724 16.829 10.5781 17.0154C10.5781 17.0154 10.5769 17.0167 10.5756 17.0179C10.9209 17.2739 11.2674 17.5273 11.6958 17.6317C11.8659 17.7336 12.0373 17.8355 12.318 18.0032C11.4052 17.9361 10.6973 17.5919 9.95844 17.3658C9.91994 17.4043 9.87399 17.4205 9.82307 17.418C9.70386 17.5721 9.5213 17.592 9.33751 17.6118C8.94384 17.372 8.51043 17.5485 8.09937 17.4938C7.78394 17.4565 7.53805 17.2552 7.25863 17.1347C7.25863 17.1359 7.25739 17.1372 7.25614 17.1384C7.14686 17.2055 7.03882 17.1844 6.92953 17.1384C6.65757 16.9272 6.29743 16.8303 6.10742 16.5109C5.84415 16.3556 5.64669 16.1332 5.46538 15.8934C5.31139 15.7542 5.15615 15.6138 5.00216 15.4747C4.80347 15.3044 4.75379 15.0062 4.49548 14.8869C4.82582 16.3842 5.41446 17.7634 6.35704 18.9848C6.83267 19.6011 7.41262 20.005 8.22107 19.9975C10.2354 20.041 11.8523 19.0457 13.4493 17.9995C13.5586 17.9473 13.6766 17.9076 13.7772 17.8405C15.6921 16.5681 17.3798 15.0323 18.8961 13.3126C19.753 12.341 20.5379 11.3134 21.0185 10.0783C21.5686 8.66675 21.2693 7.6255 20.0883 6.63519L20.0908 6.63643Z" fill="white"/>
        <path d="M5.08545 15.374C5.24689 15.5194 5.41082 15.661 5.56357 15.8151C5.7722 16.0301 5.98456 16.2425 6.20313 16.4475C6.42542 16.706 6.75079 16.8228 7.00785 17.0328C7.0389 17.0626 7.06622 17.0949 7.08982 17.1297C7.13701 17.1272 7.18544 17.1247 7.23263 17.121C7.60146 17.0005 7.87343 17.372 8.22985 17.3161C8.61234 17.3857 9.0619 17.1595 9.36739 17.5721C9.36491 17.577 9.36243 17.582 9.35994 17.587C9.45805 17.4702 9.57975 17.4056 9.72008 17.3782C9.22458 17.1521 8.81849 16.7743 8.32423 16.547C7.68715 15.8747 7.06746 15.1876 6.54215 14.421C6.49869 14.3439 6.46516 14.2632 6.43784 14.1799C6.3447 13.9314 6.18822 13.7065 6.12613 13.4505C5.96717 12.7945 5.50892 12.377 5.0097 11.9868C4.96499 11.9558 4.92152 11.9234 4.87682 11.8924C4.39001 11.4364 3.93921 10.9468 3.54802 10.4051C3.41763 10.159 3.28723 9.91425 3.15684 9.66823C2.25897 7.80689 2.47009 5.99402 3.39652 4.21345C3.42011 3.99352 3.68835 3.87797 3.64613 3.6307C3.91065 3.44059 4.10686 3.19084 4.26582 2.91003C4.71662 2.25645 5.22578 1.66624 5.98704 1.35684C6.54588 1.22513 6.99047 0.811367 7.56545 0.719419C7.67846 0.657291 7.72689 0.726874 7.76291 0.818822C7.68591 1.12325 7.38041 1.16301 7.18047 1.32578C6.77687 1.58174 6.36954 1.8315 6.05038 2.1968C5.535 2.67394 5.10035 3.21321 4.78368 3.84318C3.83862 5.62002 3.78398 7.40804 4.7042 9.21097C4.95878 9.74899 5.38101 10.1677 5.70762 10.6548C5.72128 10.6747 5.73122 10.6747 5.73743 10.666C5.73867 10.6523 5.73991 10.6387 5.74115 10.625C5.73619 10.615 5.72625 10.6126 5.71011 10.6337C5.54246 10.4846 5.60703 10.297 5.63435 10.1218C5.65919 9.96147 5.70514 9.80366 5.7039 9.63965C5.73246 9.03577 5.96469 8.49402 6.20685 7.95476C6.29875 7.73483 6.40431 7.52111 6.50987 7.30739C6.74209 6.9135 6.99668 6.53329 7.26119 6.16052C7.47852 5.9058 7.65362 5.61629 7.90199 5.38766C8.17024 5.10063 8.48319 4.86703 8.79241 4.62846C8.88679 4.56012 8.98242 4.49675 9.10909 4.52782C9.13641 4.50172 9.16 4.47563 9.1836 4.44954C9.20471 4.45202 9.22582 4.45078 9.24817 4.45327C9.61452 4.25446 9.98087 4.05565 10.3472 3.85684C10.3472 3.85684 10.3485 3.85436 10.3497 3.85436C10.3497 3.85436 10.3497 3.85436 10.3509 3.85436C10.4739 3.62697 10.7173 3.60337 10.9222 3.51514C11.0501 3.47166 11.1805 3.43562 11.3084 3.39213C11.4574 3.3474 11.6139 3.33125 11.758 3.26664C11.8536 3.23433 11.9492 3.16972 12.0511 3.25048V3.24427C12.3193 3.33373 12.5987 3.26539 12.8719 3.29149C13.2246 3.2977 13.5773 3.26415 13.9288 3.31137C14.0132 3.32131 14.0989 3.33125 14.1833 3.34119C14.1895 3.34119 14.1958 3.3387 14.202 3.3387C14.2057 3.34243 14.2082 3.34616 14.2119 3.34989C14.6167 3.46171 15.0216 3.5723 15.4264 3.68413C15.5506 3.73507 15.6761 3.78602 15.8002 3.83696C16.2125 3.84939 16.5168 4.06932 16.7863 4.35262H16.7826C16.9092 4.54149 17.2284 4.53652 17.2569 4.82354C17.0583 5.00123 16.8645 4.84964 16.6683 4.81485C16.4473 4.73657 16.2262 4.65829 16.0089 4.57131C15.7866 4.48806 15.5568 4.43463 15.3221 4.40108C15.1371 4.38368 14.9508 4.38865 14.7658 4.38741C14.1647 4.41723 13.5475 4.28925 12.975 4.58001C12.5006 4.81609 11.9132 4.75272 11.4947 5.13915C11.4574 5.18388 11.414 5.22364 11.3693 5.26092C11.2525 5.34666 11.1197 5.40381 10.9868 5.45848C10.6838 5.5554 10.4751 5.77285 10.2802 6.00893C9.92747 6.27359 9.58596 6.54944 9.30903 6.89735C9.06438 7.19805 8.89673 7.54844 8.69058 7.87399C8.57881 8.03925 8.49809 8.21942 8.42854 8.4058C8.21743 8.99849 7.99638 9.58746 7.90075 10.2137C7.88088 10.7666 7.79271 11.3221 7.94422 11.87C8.05723 12.0427 8.24848 12.0763 8.42358 12.1359C8.56142 12.1757 8.6943 12.2266 8.83836 12.2403C9.0234 12.2552 9.20844 12.2627 9.3885 12.3061C10.0964 12.4689 10.7856 12.3099 11.4773 12.1943C11.7605 12.1334 12.0486 12.0875 12.3205 11.9794C12.4758 11.9234 12.6173 11.8439 12.7477 11.7445C12.7925 11.711 12.8396 11.6824 12.8881 11.6563C13.247 11.4935 13.581 11.2873 13.9014 11.0586C14.1063 10.9443 14.2951 10.7666 14.5596 10.8983C14.6701 11.3742 14.1995 11.4712 14.0058 11.7507C13.4891 12.2279 12.8396 12.4876 12.2324 12.8156C11.948 12.9746 11.6425 13.0716 11.3345 13.1585C11.3345 13.1585 11.3345 13.1585 11.3357 13.1585C11.332 13.161 11.3295 13.1635 11.3258 13.166C11.3258 13.1647 11.3258 13.1635 11.3258 13.161C11.1221 13.2182 10.9172 13.2728 10.7173 13.3387C10.4615 13.4381 10.1945 13.4468 9.92623 13.4505C9.49903 13.4468 9.07059 13.4679 8.64463 13.4505C8.51548 13.4878 8.31305 13.3226 8.2671 13.5897C8.50057 14.3626 8.90045 15.041 9.40092 15.666C9.66668 15.9741 9.85917 16.3519 10.2367 16.5569C10.3857 16.6861 10.5583 16.7992 10.5745 17.0241C10.5745 17.0241 10.577 17.0241 10.5782 17.0229C10.8775 16.6041 11.3767 16.4252 11.7319 16.0735C11.8822 15.9443 12.02 15.7977 12.1802 15.6797C12.8098 15.2224 13.2457 14.5899 13.7077 13.9836C14.0616 13.6208 14.4044 13.2505 14.6838 12.8243C15.1023 12.2912 15.4699 11.7234 15.8338 11.1531C15.9878 10.9543 16.1107 10.7356 16.2138 10.5057C16.4957 10.0124 16.8235 9.54521 17.0707 9.03204C17.247 8.73383 17.3551 8.39586 17.5997 8.13865C17.9288 7.75222 18.2442 7.36082 18.1759 6.80168C18.1536 6.68488 18.1486 6.56808 18.1846 6.45252C18.2852 6.30839 18.4019 6.19407 18.4193 5.98284C18.4367 5.78403 18.4765 5.51813 18.7472 5.43488C18.7882 4.9391 19.0514 4.48184 19.008 3.96992C19.0067 3.56112 19.0055 3.15232 19.0042 2.74228C18.9459 2.10486 18.5634 1.71345 18.0157 1.44879C17.8208 1.1307 17.5165 1.0226 17.1638 1.00769C16.8881 0.997749 16.7304 0.657291 16.4199 0.743027C16.2883 0.583981 16.1033 0.631198 15.9344 0.61753C15.7593 0.449786 15.5332 0.516884 15.3271 0.487063C14.8738 0.342928 14.4106 0.267132 13.935 0.272102C13.7388 0.26092 13.5425 0.249737 13.3451 0.237311C13.011 0.105601 12.6658 0.114299 12.3181 0.146605C11.5344 0.146605 10.7508 0.149091 9.96845 0.149091C9.80204 0.149091 9.63564 0.149091 9.47047 0.149091C9.17863 0.185124 8.88679 0.221158 8.59495 0.255949C8.39129 0.26092 8.18638 0.267132 7.98272 0.272102C7.56918 0.319319 7.15688 0.366536 6.74334 0.413753C6.1609 0.516884 5.5586 0.519369 4.99976 0.747997C4.9178 0.756695 4.83708 0.76415 4.75511 0.772848C4.66197 0.801427 4.56883 0.830005 4.47694 0.857341C4.21863 0.841188 3.9864 0.939349 3.74921 1.01887C3.36423 1.09342 2.98919 1.19531 2.63898 1.37797C2.3993 1.37921 2.21178 1.51216 2.01556 1.62399C1.73118 1.67369 1.48901 1.80789 1.27293 1.99551C0.957497 2.11977 0.714092 2.33348 0.512911 2.60063C0.202445 2.86405 0.137868 3.23806 0.0583887 3.60585C0.0534213 3.80839 0.0484538 4.01092 0.0447282 4.21345L-0.0012207 4.34392C0.0472119 5.31932 0.223557 6.26987 0.548925 7.19183C0.67932 7.61803 0.771218 8.05789 1.00469 8.44681C1.18352 9.06435 1.41326 9.66077 1.74732 10.2125C1.9721 10.8188 2.24903 11.3991 2.62905 11.9259C2.86376 12.5186 3.23507 13.0268 3.61012 13.5338C3.80136 13.9016 4.01869 14.2495 4.31922 14.5402C4.37014 14.6185 4.4223 14.6968 4.47321 14.7763C4.47694 14.8148 4.48563 14.8521 4.49681 14.8882C4.87806 14.8273 4.86812 15.2361 5.08421 15.374H5.08545ZM7.47355 4.70799C7.31832 5.03478 7.1159 5.32677 6.83275 5.55789C6.83523 5.56037 6.83648 5.5641 6.83896 5.56783C6.83399 5.56783 6.82903 5.56783 6.82406 5.56659C6.54464 5.85486 6.21927 5.8064 5.88397 5.69581C5.51886 5.52931 5.22578 5.27956 5.00349 4.94656L4.96499 4.71669C4.69178 4.50794 4.8793 4.30168 4.96996 4.09541C5.02957 3.69283 5.30526 3.4555 5.61573 3.24303C5.98704 3.12623 6.35836 3.1225 6.72843 3.24551C6.7719 3.27036 6.81536 3.29521 6.86007 3.31882C7.15067 3.51639 7.29969 3.8233 7.46486 4.11654C7.5878 4.31286 7.57042 4.51042 7.47355 4.70923V4.70799ZM12.0647 3.22812C12.0647 3.22812 12.0747 3.2393 12.0796 3.24551C12.0709 3.24551 12.0622 3.24551 12.0535 3.24551C12.0573 3.2393 12.061 3.23433 12.0635 3.22812H12.0647Z" fill="white"/>
        <path d="M11.3282 13.1561C11.3282 13.1561 11.3282 13.1561 11.3282 13.1573C11.3307 13.1573 11.3332 13.1561 11.3357 13.1548C11.3332 13.1548 11.3307 13.1548 11.3282 13.1548V13.1561Z" fill="white"/>
        <path d="M12.8346 11.8054C12.8346 11.8054 12.8346 11.8054 12.8346 11.8067C12.9228 11.7545 12.9985 11.6986 13.0643 11.6389C12.9836 11.6899 12.9054 11.742 12.8358 11.8042L12.8346 11.8054Z" fill="white"/>
        <path d="M11.9567 17.8976C12.0275 17.9237 12.1044 17.9473 12.1889 17.9684C12.1044 17.9361 12.0262 17.9175 11.9567 17.8976Z" fill="white"/>
        <path d="M9.84552 17.3521C9.84552 17.3521 9.83807 17.3608 9.83434 17.3658C9.79461 17.3683 9.75735 17.3733 9.72009 17.3807C9.74866 17.3931 9.77474 17.4081 9.8033 17.4192C9.81075 17.4192 9.81696 17.4192 9.82441 17.4192C9.83807 17.4018 9.85049 17.3844 9.86291 17.3633C9.8567 17.3596 9.85173 17.3559 9.84676 17.3521H9.84552Z" fill="white"/>
    </g>
    <defs>
        <clipPath id="clip0_61_49">
            <rect width="149" height="20" fill="white"/>
        </clipPath>
    </defs>
</svg>
