<svg width="293" height="20" viewBox="0 0 293 20" fill="none" xmlns="http://www.w3.org/2000/svg">
    <path d="M2.64 4.3H7.3V2.62H0.62V14.24H1.82C4.36 14.24 6.22 14.16 8.4 13.74L8.22 12.04C6.36 12.42 4.72 12.52 2.64 12.54V4.3ZM13.46 0.46V7.6H11.32V0.839999H9.38V17.64H11.32V9.28H13.46V18.52H15.42V0.46H13.46ZM24.7784 10.88H28.3384V14.76H24.7784V10.88ZM24.4784 3.7H28.6384V9.22H24.4784V3.7ZM30.3784 14.76V10.88H33.2784V9.22H30.6784V3.7H33.3384V2.04H19.7584V3.7H22.4184V9.22H19.8184V10.88H22.7184V14.76H18.4184V16.46H34.7984V14.76H30.3784ZM46.4369 5.32V7.02H49.7169V13.7H51.7769V0.499999H49.7169V5.32H46.4369ZM47.5569 9.54C44.8569 8.6 43.3169 6.34 43.3169 4.12V3.5H47.0769V1.84H37.4169V3.5H41.2369V4.12C41.2369 6.56 39.5969 8.94 36.7969 9.92L37.8569 11.54C39.9969 10.8 41.5169 9.22 42.3169 7.26C43.0769 9.04 44.5369 10.46 46.5369 11.14L47.5569 9.54ZM42.1369 16.52V12.56H40.0769V18.2H52.2369V16.52H42.1369ZM66.0553 2.56H61.7353V0.54H59.6753V2.56H55.3153V4.22H66.0553V2.56ZM58.3153 8.5C58.3153 7.38 59.2953 6.7 60.7153 6.7C62.1353 6.7 63.0953 7.38 63.0953 8.5C63.0953 9.6 62.1353 10.28 60.7153 10.28C59.2953 10.28 58.3153 9.6 58.3153 8.5ZM61.7353 11.78C63.7353 11.46 65.0353 10.22 65.0353 8.5C65.0353 6.46 63.2753 5.12 60.7153 5.12C58.1353 5.12 56.3753 6.46 56.3753 8.5C56.3753 10.22 57.6753 11.44 59.6753 11.78V13.54C57.9953 13.6 56.3753 13.6 54.9953 13.6L55.2753 15.3C58.3753 15.3 62.5553 15.26 66.4153 14.58L66.2553 13.06C64.8153 13.28 63.2753 13.38 61.7353 13.46V11.78ZM71.8953 8.02H69.3353V0.46H67.2753V18.54H69.3353V9.72H71.8953V8.02ZM78.8059 17H87.2059V15.1H84.3259V2.26H82.5859C81.7459 2.8 80.7659 3.14 79.3859 3.4V4.86H82.0259V15.1H78.8059V17ZM94.2122 17.26C97.0522 17.26 98.9722 15.58 98.9722 13.4C98.9722 11.4 97.8122 10.24 96.4922 9.5V9.4C97.4122 8.72 98.4322 7.44 98.4322 5.94C98.4322 3.64 96.8322 2.04 94.2722 2.04C91.8722 2.04 90.0722 3.54 90.0722 5.84C90.0722 7.4 90.9522 8.5 92.0522 9.28V9.38C90.6922 10.1 89.4122 11.4 89.4122 13.34C89.4122 15.62 91.4522 17.26 94.2122 17.26ZM95.1722 8.82C93.5322 8.18 92.1322 7.44 92.1322 5.84C92.1322 4.52 93.0322 3.7 94.2322 3.7C95.6722 3.7 96.4922 4.72 96.4922 6.08C96.4922 7.06 96.0522 8 95.1722 8.82ZM94.2522 15.6C92.6722 15.6 91.4522 14.58 91.4522 13.12C91.4522 11.84 92.1522 10.74 93.1722 10.04C95.1722 10.86 96.7922 11.54 96.7922 13.34C96.7922 14.72 95.7722 15.6 94.2522 15.6ZM102.898 6.84C102.898 4.92 103.898 3.78 105.158 3.78C106.758 3.78 107.858 5.1 108.078 8C107.238 9.26 106.198 9.8 105.278 9.8C103.738 9.8 102.898 8.72 102.898 6.84ZM104.758 17.26C107.598 17.26 110.238 14.94 110.238 9.14C110.238 4.26 107.958 2 105.138 2C102.758 2 100.758 3.92 100.758 6.84C100.758 9.92 102.418 11.46 104.878 11.46C105.998 11.46 107.258 10.8 108.118 9.74C107.978 13.94 106.438 15.38 104.658 15.38C103.738 15.38 102.838 14.94 102.258 14.28L100.998 15.7C101.858 16.58 103.058 17.26 104.758 17.26ZM114.305 6.84C114.305 4.92 115.305 3.78 116.565 3.78C118.165 3.78 119.265 5.1 119.485 8C118.645 9.26 117.605 9.8 116.685 9.8C115.145 9.8 114.305 8.72 114.305 6.84ZM116.165 17.26C119.005 17.26 121.645 14.94 121.645 9.14C121.645 4.26 119.365 2 116.545 2C114.165 2 112.165 3.92 112.165 6.84C112.165 9.92 113.825 11.46 116.285 11.46C117.405 11.46 118.665 10.8 119.525 9.74C119.385 13.94 117.845 15.38 116.065 15.38C115.145 15.38 114.245 14.94 113.665 14.28L112.405 15.7C113.265 16.58 114.465 17.26 116.165 17.26ZM123.651 12.2H128.931V10.5H123.651V12.2ZM133.719 17H136.079C136.319 11.24 136.859 7.98 140.319 3.68V2.26H130.839V4.22H137.759C134.919 8.18 133.979 11.62 133.719 17ZM146.626 17.26C149.206 17.26 151.586 15.42 151.586 12.16C151.586 8.94 149.566 7.48 147.106 7.48C146.306 7.48 145.726 7.68 145.086 8L145.426 4.22H150.886V2.26H143.426L142.986 9.26L144.106 10C144.966 9.44 145.526 9.16 146.466 9.16C148.146 9.16 149.266 10.28 149.266 12.24C149.266 14.2 148.006 15.38 146.346 15.38C144.806 15.38 143.746 14.64 142.906 13.8L141.806 15.3C142.846 16.32 144.306 17.26 146.626 17.26ZM158.392 17.26C161.232 17.26 163.152 15.58 163.152 13.4C163.152 11.4 161.992 10.24 160.672 9.5V9.4C161.592 8.72 162.612 7.44 162.612 5.94C162.612 3.64 161.012 2.04 158.452 2.04C156.052 2.04 154.252 3.54 154.252 5.84C154.252 7.4 155.132 8.5 156.232 9.28V9.38C154.872 10.1 153.592 11.4 153.592 13.34C153.592 15.62 155.632 17.26 158.392 17.26ZM159.352 8.82C157.712 8.18 156.312 7.44 156.312 5.84C156.312 4.52 157.212 3.7 158.412 3.7C159.852 3.7 160.672 4.72 160.672 6.08C160.672 7.06 160.232 8 159.352 8.82ZM158.432 15.6C156.852 15.6 155.632 14.58 155.632 13.12C155.632 11.84 156.332 10.74 157.352 10.04C159.352 10.86 160.972 11.54 160.972 13.34C160.972 14.72 159.952 15.6 158.432 15.6ZM169.778 17.26C172.658 17.26 174.538 14.7 174.538 9.58C174.538 4.5 172.658 2 169.778 2C166.898 2 165.018 4.48 165.018 9.58C165.018 14.7 166.898 17.26 169.778 17.26ZM169.778 15.44C168.278 15.44 167.218 13.84 167.218 9.58C167.218 5.36 168.278 3.82 169.778 3.82C171.278 3.82 172.338 5.36 172.338 9.58C172.338 13.84 171.278 15.44 169.778 15.44Z" fill="white"/>
    <path d="M187.313 19.388L188.177 19.004C187.145 17.288 186.665 15.26 186.665 13.244C186.665 11.24 187.145 9.212 188.177 7.484L187.313 7.112C186.197 8.924 185.537 10.88 185.537 13.244C185.537 15.632 186.197 17.564 187.313 19.388ZM189.898 17H191.29V13.196H194.554V12.032H191.29V9.332H195.13V8.156H189.898V17ZM197.872 12.2C198.16 11.24 198.436 10.268 198.688 9.26H198.748C199.012 10.256 199.276 11.24 199.576 12.2L199.924 13.388H197.512L197.872 12.2ZM195.016 17H196.432L197.188 14.48H200.26L201.004 17H202.48L199.552 8.156H197.944L195.016 17ZM202.672 17H204.148L205.276 14.804C205.492 14.348 205.72 13.904 205.96 13.364H206.008C206.284 13.904 206.512 14.348 206.74 14.804L207.904 17H209.452L206.908 12.512L209.284 8.156H207.82L206.776 10.232C206.572 10.64 206.404 11.036 206.176 11.564H206.116C205.852 11.036 205.66 10.64 205.444 10.232L204.376 8.156H202.828L205.204 12.44L202.672 17ZM215.744 17.156C217.508 17.156 218.6 15.56 218.6 12.668C218.6 9.788 217.508 8.24 215.744 8.24C213.992 8.24 212.888 9.776 212.888 12.668C212.888 15.56 213.992 17.156 215.744 17.156ZM215.744 16.064C214.844 16.064 214.208 15.14 214.208 12.668C214.208 10.196 214.844 9.332 215.744 9.332C216.644 9.332 217.28 10.196 217.28 12.668C217.28 15.14 216.644 16.064 215.744 16.064ZM222.384 17.156C224.004 17.156 225.336 16.244 225.336 14.696C225.336 13.532 224.532 12.788 223.512 12.536V12.476C224.448 12.128 225.036 11.468 225.036 10.472C225.036 9.056 223.92 8.24 222.336 8.24C221.316 8.24 220.5 8.684 219.804 9.32L220.524 10.184C221.028 9.68 221.604 9.344 222.288 9.344C223.128 9.344 223.644 9.812 223.644 10.58C223.644 11.408 223.068 12.044 221.328 12.044V13.064C223.32 13.064 223.944 13.676 223.944 14.624C223.944 15.488 223.26 16.028 222.264 16.028C221.352 16.028 220.692 15.584 220.176 15.056L219.504 15.944C220.092 16.604 220.992 17.156 222.384 17.156ZM227.044 17H232.084V15.86H230.356V8.408H229.312C228.808 8.72 228.22 8.936 227.392 9.08V9.956H228.976V15.86H227.044V17ZM233.419 14.12H236.587V13.1H233.419V14.12ZM237.673 17H243.373V15.824H241.129C240.697 15.824 240.133 15.86 239.689 15.908C241.525 13.988 242.953 12.404 242.953 10.832C242.953 9.272 241.909 8.24 240.289 8.24C239.137 8.24 238.357 8.744 237.601 9.56L238.381 10.328C238.849 9.788 239.425 9.344 240.121 9.344C241.117 9.344 241.621 9.968 241.621 10.904C241.621 12.248 240.133 13.784 237.673 16.196V17ZM247.564 12.716C248.5 12.716 249.028 13.304 249.028 14.36C249.028 15.452 248.416 16.1 247.648 16.1C246.712 16.1 246.076 15.356 245.932 13.76C246.46 12.992 247.072 12.716 247.564 12.716ZM247.66 17.156C249.1 17.156 250.3 16.052 250.3 14.36C250.3 12.584 249.292 11.708 247.816 11.708C247.18 11.708 246.412 12.104 245.896 12.74C245.956 10.22 246.892 9.38 248.008 9.38C248.536 9.38 249.076 9.644 249.4 10.028L250.156 9.188C249.652 8.66 248.932 8.24 247.948 8.24C246.196 8.24 244.612 9.608 244.612 12.992C244.612 15.824 245.98 17.156 247.66 17.156ZM254.252 17.156C256.016 17.156 257.108 15.56 257.108 12.668C257.108 9.788 256.016 8.24 254.252 8.24C252.5 8.24 251.396 9.776 251.396 12.668C251.396 15.56 252.5 17.156 254.252 17.156ZM254.252 16.064C253.352 16.064 252.716 15.14 252.716 12.668C252.716 10.196 253.352 9.332 254.252 9.332C255.152 9.332 255.788 10.196 255.788 12.668C255.788 15.14 255.152 16.064 254.252 16.064ZM258.24 14.12H261.408V13.1H258.24V14.12ZM265.181 17.156C266.729 17.156 268.157 16.1 268.157 14.216C268.157 12.368 266.945 11.54 265.469 11.54C264.989 11.54 264.641 11.648 264.257 11.84L264.461 9.572H267.737V8.408H263.261L262.997 12.608L263.669 13.04C264.185 12.704 264.521 12.536 265.085 12.536C266.093 12.536 266.765 13.172 266.765 14.264C266.765 15.356 266.009 16.028 265.013 16.028C264.089 16.028 263.453 15.584 262.949 15.08L262.289 15.98C262.913 16.592 263.789 17.156 265.181 17.156ZM272.385 12.716C273.321 12.716 273.849 13.304 273.849 14.36C273.849 15.452 273.237 16.1 272.469 16.1C271.533 16.1 270.897 15.356 270.753 13.76C271.281 12.992 271.893 12.716 272.385 12.716ZM272.481 17.156C273.921 17.156 275.121 16.052 275.121 14.36C275.121 12.584 274.113 11.708 272.637 11.708C272.001 11.708 271.233 12.104 270.717 12.74C270.777 10.22 271.713 9.38 272.829 9.38C273.357 9.38 273.897 9.644 274.221 10.028L274.977 9.188C274.473 8.66 273.753 8.24 272.769 8.24C271.017 8.24 269.433 9.608 269.433 12.992C269.433 15.824 270.801 17.156 272.481 17.156ZM279.072 17.156C280.836 17.156 281.928 15.56 281.928 12.668C281.928 9.788 280.836 8.24 279.072 8.24C277.32 8.24 276.216 9.776 276.216 12.668C276.216 15.56 277.32 17.156 279.072 17.156ZM279.072 16.064C278.172 16.064 277.536 15.14 277.536 12.668C277.536 10.196 278.172 9.332 279.072 9.332C279.972 9.332 280.608 10.196 280.608 12.668C280.608 15.14 279.972 16.064 279.072 16.064ZM285.916 17.156C287.68 17.156 288.772 15.56 288.772 12.668C288.772 9.788 287.68 8.24 285.916 8.24C284.164 8.24 283.06 9.776 283.06 12.668C283.06 15.56 284.164 17.156 285.916 17.156ZM285.916 16.064C285.016 16.064 284.38 15.14 284.38 12.668C284.38 10.196 285.016 9.332 285.916 9.332C286.816 9.332 287.452 10.196 287.452 12.668C287.452 15.14 286.816 16.064 285.916 16.064ZM290.756 19.388C291.884 17.564 292.544 15.632 292.544 13.244C292.544 10.88 291.884 8.924 290.756 7.112L289.892 7.484C290.924 9.212 291.404 11.24 291.404 13.244C291.404 15.26 290.924 17.288 289.892 19.004L290.756 19.388Z" fill="#C7CCDA"/>
</svg>
