<svg width="64" height="64" viewBox="0 0 64 64" fill="none" xmlns="http://www.w3.org/2000/svg">
    <path d="M11.5 35.5L16 29H22V19H19.5L18.5 18L20.5 15.5L23.5 15L28 8.5H48L52 15H54L57 16.5V19L54 19.5V29L53 31H37L39.5 36.5L42.5 35.5L45 38V40L42 40.5V50.5L41 51.5L11.5 52.5L10.5 50.5L9 40.5L7 39L8 36.5L11.5 35.5Z" fill="white"/>
    <path d="M26 18L29.878 11.426C30.033 11.163 30.328 11 30.648 11H44.966C45.273 11 45.558 11.15 45.718 11.397L50 18H26Z" fill="#B6CAFF"/>
    <path d="M51 35H47C46.448 35 46 34.552 46 34V31H52V34C52 34.552 51.552 35 51 35Z" fill="#B6CAFF"/>
    <path d="M14 39L17.878 32.426C18.033 32.163 18.328 32 18.648 32H32.966C33.273 32 33.558 32.15 33.718 32.397L38 39H14Z" fill="#B6CAFF"/>
    <path d="M17 56H13C12.448 56 12 55.552 12 55V52H18V55C18 55.552 17.552 56 17 56Z" fill="#0638BE"/>
    <path d="M39 56H35C34.448 56 34 55.552 34 55V52H40V55C40 55.552 39.552 56 39 56Z" fill="#0638BE"/>
    <path d="M31 22H25V24H31V22Z" fill="#0638BE"/>
    <path d="M43 26V24C43 22.897 42.103 22 41 22H35C33.897 22 33 22.897 33 24V26H35V24H41V26H43Z" fill="#0638BE"/>
    <path d="M51 22H45V24H51V22Z" fill="#0638BE"/>
    <path d="M54 14H52.364L49.329 8.543C48.801 7.591 47.796 7 46.707 7H29.293C28.204 7 27.199 7.591 26.671 8.542L23.636 14H22C19.794 14 18 15.794 18 18C18 19.103 18.897 20 20 20H21V26H23V19.26L28.419 9.514C28.595 9.197 28.93 9 29.293 9H46.707C47.07 9 47.405 9.197 47.581 9.515L53 19.26V29C53 29.552 52.552 30 52 30H46H41V32H45V34C45 35.103 45.897 36 47 36H51C52.103 36 53 35.103 53 34V31.816C54.161 31.402 55 30.302 55 29V20H56C57.103 20 58 19.103 58 18C58 15.794 56.206 14 54 14ZM22 16H22.524L21.412 18H20C20 16.897 20.897 16 22 16ZM47 34V32H51.001L51.002 34H47ZM54.588 18L53.476 16H54C55.103 16 56 16.897 56 18H54.588Z" fill="#0638BE"/>
    <path d="M42 35H40.364L37.329 29.542C36.801 28.591 35.796 28 34.707 28H17.293C16.204 28 15.199 28.591 14.671 29.542L11.636 35H10C7.794 35 6 36.794 6 39C6 40.103 6.897 41 8 41H9V50C9 51.302 9.839 52.402 11 52.816V55C11 56.103 11.897 57 13 57H17C18.103 57 19 56.103 19 55V53H33V55C33 56.103 33.897 57 35 57H39C40.103 57 41 56.103 41 55V52.816C42.161 52.402 43 51.302 43 50V46V41H44C45.103 41 46 40.103 46 39C46 36.794 44.206 35 42 35ZM9.412 39H8C8 37.897 8.897 37 10 37H10.524L9.412 39ZM11 43H15V45H11V43ZM13 55V53H17H17.001L17.002 55H13ZM35 55V53H39.001L39.002 55H35ZM41 45H37V43H41V45ZM41 41H36C35.447 41 35 41.447 35 42V46C35 46.553 35.447 47 36 47H41V50C41 50.552 40.552 51 40 51H36C36 49.897 35.103 49 34 49H18C16.897 49 16 49.897 16 51H12C11.448 51 11 50.552 11 50V47H16C16.553 47 17 46.553 17 46V42C17 41.447 16.553 41 16 41H11V40.26L16.419 30.514C16.595 30.197 16.93 30 17.293 30H34.707C35.07 30 35.405 30.197 35.581 30.514C35.581 30.514 35.581 30.514 35.581 30.515L41 40.26V41ZM42.588 39L41.476 37H42C43.103 37 44 37.897 44 39H42.588Z" fill="#0638BE"/>
    <path d="M31 41H21C19.897 41 19 41.897 19 43V45C19 46.103 19.897 47 21 47H31C32.103 47 33 46.103 33 45V43C33 41.897 32.103 41 31 41ZM23 45H21V43H23V45ZM27 45H25V43H27V45ZM29 45V43H31L31.002 45H29Z" fill="#0638BE"/>
</svg>
