<svg width="64" height="64" viewBox="0 0 64 64" fill="none" xmlns="http://www.w3.org/2000/svg">
    <path d="M24.5 8L25.5 11.5L39 11V8.5L40.5 7H43L45 8L45.5 11H51.5L54 14V54L51 57H13L10 54V14.5L13 11.5H18.5L19.5 7.5L24.5 8Z" fill="white"/>
    <path d="M15 49H49V53H15V49Z" fill="#B6CAFF"/>
    <path d="M50 10H46V9C46 7.346 44.654 6 43 6H41C39.346 6 38 7.346 38 9V10H26V9C26 7.346 24.654 6 23 6H21C19.346 6 18 7.346 18 9V10H14C11.243 10 9 12.243 9 15V53C9 55.757 11.243 58 14 58H50C52.757 58 55 55.757 55 53V15C55 12.243 52.757 10 50 10ZM44 14C44 14.552 43.552 15 43 15H41C40.448 15 40 14.552 40 14V9C40 8.448 40.448 8 41 8H43C43.552 8 44 8.448 44 9V14ZM24 14C24 14.552 23.552 15 23 15H21C20.448 15 20 14.552 20 14V9C20 8.448 20.448 8 21 8H23C23.552 8 24 8.448 24 9V14ZM14 12H18V14C18 15.654 19.345 17 21 17H23C24.654 17 26 15.654 26 14V12H38V14C38 15.654 39.345 17 41 17H43C44.654 17 46 15.654 46 14V12H50C51.654 12 53 13.346 53 15V22H11V15C11 13.346 12.345 12 14 12ZM15 49.815C15 49.928 15.647 50 16 50H48C48.352 50 49 49.928 49 49.816V51C49 51.552 48.551 52 48 52H16C15.448 52 15 51.552 15 51V49.815ZM49 47C49 47.552 48.551 48 48 48H16C15.448 48 15 47.552 15 47V46V24H49V46V47ZM50 56H14C12.346 56 11 54.654 11 53V24H13V46V47V51C13 52.654 14.345 54 16 54H48C49.654 54 51 52.654 51 51V47V46V24H53V53C53 54.654 51.654 56 50 56Z" fill="#0638BE"/>
    <path d="M43 37C43 37.552 42.551 38 42 38H36C35.448 38 35 37.552 35 37V31C35 30.448 35.448 30 36 30H39V28H36C34.346 28 33 29.346 33 31V37C33 38.654 34.345 40 36 40H42C43.654 40 45 38.654 45 37V35H43V37Z" fill="#0638BE"/>
    <path d="M39 33.586L37.707 32.293L36.293 33.707L39 36.414L45.707 29.707L44.293 28.293L39 33.586Z" fill="#0638BE"/>
</svg>
