<svg width="40" height="40" viewBox="0 0 40 40" fill="none" xmlns="http://www.w3.org/2000/svg">
    <path d="M12.5427 37.5176C12.8674 37.5081 13.1756 37.3727 13.4021 37.14L29.6521 20.89C29.8865 20.6556 30.0181 20.3377 30.0181 20.0062C30.0181 19.6747 29.8865 19.3568 29.6521 19.1224L13.4021 2.8724C13.2869 2.75244 13.149 2.65666 12.9963 2.59068C12.8437 2.5247 12.6794 2.48985 12.5131 2.48816C12.3468 2.48647 12.1818 2.51798 12.0278 2.58084C11.8739 2.6437 11.734 2.73665 11.6164 2.85425C11.4988 2.97184 11.4058 3.11172 11.343 3.26569C11.2801 3.41966 11.2486 3.58463 11.2503 3.75093C11.252 3.91722 11.2869 4.08151 11.3528 4.23418C11.4188 4.38684 11.5146 4.5248 11.6345 4.63998L27.0008 20.0062L11.6345 35.3724C11.4542 35.548 11.3311 35.774 11.2813 36.0208C11.2315 36.2675 11.2574 36.5236 11.3556 36.7554C11.4537 36.9872 11.6195 37.1839 11.8314 37.3199C12.0432 37.4559 12.2911 37.5248 12.5427 37.5176Z" fill="white"/>
</svg>
