<svg width="64" height="64" viewBox="0 0 64 64" fill="none" xmlns="http://www.w3.org/2000/svg">
    <path d="M25 51.5H31.5V49.5L29 46L18.5 33.5L15 27L16 18L22 10L31.5 7L40.5 9L47 16L49 24L46 33.5L33.5 47.5L33 51L40 51.5L42.5 54L40 56L31.5 57L23 55.5L22 53.5L25 51.5Z" fill="white"/>
    <path d="M40 24C40 19.589 36.411 16 32 16C27.589 16 24 19.589 24 24C24 28.411 27.589 32 32 32C36.411 32 40 28.411 40 24ZM26 24C26 20.691 28.691 18 32 18C35.309 18 38 20.691 38 24C38 27.309 35.309 30 32 30C28.691 30 26 27.309 26 24Z" fill="#0638BE"/>
    <path d="M42 24H44C44 17.383 38.617 12 32 12V14C37.514 14 42 18.486 42 24Z" fill="#0638BE"/>
    <path d="M32 20C30.9391 20 29.9217 20.4214 29.1716 21.1716C28.4214 21.9217 28 22.9391 28 24C28 25.0609 28.4214 26.0783 29.1716 26.8284C29.9217 27.5786 30.9391 28 32 28C33.0609 28 34.0783 27.5786 34.8284 26.8284C35.5786 26.0783 36 25.0609 36 24C36 22.9391 35.5786 21.9217 34.8284 21.1716C34.0783 20.4214 33.0609 20 32 20Z" fill="#B6CAFF"/>
    <path d="M33.715 50.03C35.017 46.457 37.925 43.459 40.962 40.334C45.405 35.763 50 31.036 50 24C50 14.075 41.925 6 32 6C22.075 6 14 14.075 14 24C14 31.036 18.595 35.763 23.038 40.334C26.075 43.459 28.984 46.457 30.285 50.03C24.128 50.233 21 51.563 21 54C21 56.654 24.701 58 32 58C39.299 58 43 56.654 43 54C43 51.563 39.872 50.233 33.715 50.03ZM16 24C16 15.178 23.178 8 32 8C40.822 8 48 15.178 48 24C48 30.225 43.885 34.458 39.528 38.94C36.561 41.992 33.523 45.118 32 48.912C30.477 45.118 27.438 41.992 24.472 38.94C20.115 34.458 16 30.225 16 24ZM32 56C25.396 56 23 54.804 23 54C23 53.246 25.11 52.146 30.826 52.014C30.885 52.346 30.928 52.683 30.957 53.026C29.008 53.115 26.667 53.439 26.667 54C26.667 54.667 29.975 55 32 55C34.025 55 37.333 54.667 37.333 54C37.333 53.439 34.992 53.115 33.043 53.026C33.072 52.683 33.115 52.345 33.174 52.014C38.89 52.146 41 53.246 41 54C41 54.804 38.604 56 32 56Z" fill="#0638BE"/>
</svg>
